<svg width="513" height="460" viewBox="0 0 513 460" fill="none" xmlns="http://www.w3.org/2000/svg">
<path d="M500.648 238.367C500.648 297.148 477.328 353.521 435.818 395.085C394.308 436.649 338.009 460 279.305 460C273.308 460 267.381 459.75 261.526 459.285C257.457 458.963 253.458 458.534 249.46 457.998C204.473 451.847 162.46 432.004 129.108 401.153C95.757 370.303 72.6783 329.936 62.9965 285.518C62.1754 281.8 61.4614 278.011 60.8545 274.186C51.9053 219.271 63.8955 162.995 94.4468 116.518C124.998 70.0416 171.879 36.7604 225.79 23.2759C243.294 18.9104 261.267 16.7134 279.305 16.7342C280.555 16.7342 281.804 16.7342 283.054 16.7699C341.113 17.7112 396.474 41.4771 437.184 82.9368C477.895 124.396 500.69 180.224 500.648 238.367V238.367Z" fill="url(#paint0_linear_21_36)"/>
<path opacity="0.05" d="M477.014 138.632C458.332 157.856 433.631 170.084 407.033 173.278C380.435 176.471 353.548 170.436 330.857 156.179C308.165 141.922 291.042 120.306 282.342 94.9362C273.643 69.5663 273.894 41.9768 283.054 16.7699C281.804 16.7342 280.555 16.7342 279.305 16.7342C261.267 16.7134 243.294 18.9104 225.79 23.2759C220.835 48.0618 221.432 73.6397 227.538 98.1667C233.644 122.694 245.107 145.56 261.101 165.117C277.095 184.674 297.222 200.435 320.032 211.266C342.841 222.096 367.766 227.726 393.011 227.75C430.211 227.81 466.399 215.627 496.007 193.075C492.089 174.172 485.703 155.867 477.014 138.632V138.632Z" fill="#1D2D5F"/>
<path d="M378.195 377.817L335.962 430.973L335.926 431.009C335.368 431.721 334.645 432.285 333.82 432.653C333.086 433.011 332.28 433.195 331.463 433.19H282.34C281.47 433.187 280.612 433.396 279.841 433.797C279.379 434.016 278.948 434.292 278.555 434.62C278.189 434.947 277.865 435.319 277.592 435.728L261.526 459.285C257.457 458.963 253.458 458.534 249.46 457.998L247.211 457.676C239.103 456.506 231.069 454.871 223.149 452.779C198.298 446.29 174.781 435.472 153.676 420.821C150.641 418.748 147.678 416.567 144.786 414.315C115.736 392.08 92.6406 362.985 77.5623 329.63C71.1562 315.486 66.2734 300.698 62.9965 285.518C62.1754 281.8 61.4614 278.011 60.8545 274.186L93.9488 253.024C95.1435 252.254 96.5828 251.961 97.9829 252.201L141.073 259.065C141.345 259.106 141.619 259.13 141.894 259.136C143.302 259.131 144.664 258.638 145.75 257.742L189.019 220.243H189.055C190.032 219.354 191.304 218.857 192.625 218.849C192.79 218.82 192.957 218.807 193.124 218.813L239.178 221.137C239.977 221.167 240.774 221.038 241.522 220.755C242.269 220.473 242.953 220.043 243.533 219.493L282.126 181.529C282.784 180.882 283.588 180.402 284.471 180.132C285.353 179.862 286.287 179.809 287.195 179.978C288.102 180.146 288.955 180.531 289.682 181.1C290.41 181.668 290.989 182.404 291.372 183.245L345.672 300.21L373.626 360.372L378.909 371.776C379.362 372.75 379.534 373.831 379.408 374.898C379.282 375.965 378.862 376.976 378.195 377.817V377.817Z" fill="white"/>
<path d="M365.7 376.309L330.749 420.278C330.209 420.962 329.519 421.514 328.734 421.892C327.948 422.27 327.087 422.463 326.216 422.458H276.699C275.756 422.46 274.827 422.692 273.993 423.134C273.159 423.576 272.446 424.215 271.915 424.996L249.46 457.991C204.463 451.866 162.436 432.031 129.081 401.176C95.7246 370.322 72.6535 329.941 62.9965 285.511L96.2693 264.241C97.4734 263.495 98.9038 263.203 100.303 263.419L144.322 270.425C145.151 270.563 146 270.515 146.808 270.287C147.616 270.058 148.364 269.654 148.999 269.103L192.803 231.139C193.936 230.177 195.389 229.68 196.873 229.745L243.355 232.068C244.15 232.111 244.944 231.986 245.688 231.703C246.432 231.42 247.109 230.984 247.675 230.424L278.805 199.824C279.462 199.178 280.265 198.699 281.145 198.428C282.025 198.157 282.957 198.101 283.863 198.266C284.769 198.43 285.623 198.811 286.352 199.374C287.081 199.938 287.664 200.668 288.052 201.505L338.853 310.927V310.963L363.665 364.369L366.414 370.267C366.867 371.241 367.041 372.322 366.914 373.39C366.788 374.457 366.368 375.467 365.7 376.309V376.309Z" fill="url(#paint1_linear_21_36)"/>
<path d="M258.242 323.195C242.141 344.858 250.602 351.65 233.216 352.937C215.83 354.224 214.152 346.967 205.655 355.475C197.159 363.983 207.369 372.455 193.767 379.247C180.165 386.039 175.56 379.676 163.243 387.326C150.927 394.976 149.856 400.946 149.677 409.418C149.57 414.172 152.39 417.318 153.675 420.821C144.673 414.611 136.152 407.727 128.185 400.231C106.825 380.271 89.6206 356.277 77.5623 329.63C106.444 318.941 122.331 327.449 140.324 337.208C161.53 348.683 174.275 324.482 186.163 329.987C198.051 335.492 201.407 325.304 222.185 323.195C242.962 321.086 264.632 293.025 270.987 301.104C277.342 309.182 274.379 301.533 258.242 323.195Z" fill="url(#paint2_linear_21_36)"/>
<path d="M238.318 394.121C254.086 391.09 268.306 390.969 274.093 376.194C279.88 361.42 289.64 357.17 292.611 346.553C295.581 335.936 296.002 325.315 302.789 315.971C309.576 306.627 307.455 312.149 306.184 326.166C304.913 340.182 314.666 344.429 310.425 357.595C306.184 370.761 301.093 371.429 294.306 376.184C287.52 380.938 287.945 386.908 282.854 390.711C277.763 394.515 271.826 403.877 260.798 402.604C249.77 401.332 223.391 396.988 238.318 394.121Z" fill="url(#paint3_linear_21_36)"/>
<path d="M254.54 375.733C260.07 374.882 261.062 377.964 261.062 371.751C261.062 365.538 261.858 366.653 263.447 361.384C265.036 356.115 265.518 351.668 263.447 354.535C261.376 357.402 260.266 363.297 255.336 365.527C250.406 367.758 248.496 366.321 245.95 369.985C243.405 373.649 238 373.331 240.863 375.083C243.726 376.834 252.473 376.051 254.54 375.733Z" fill="url(#paint4_linear_21_36)"/>
<path d="M279.305 260.334C279.195 265.669 278.059 270.933 275.96 275.837C274.054 280.935 273.104 284.542 274.889 284.013C276.674 283.484 277.966 279.233 281.465 279.13C284.964 279.026 283.796 272.756 285.813 270.951C287.83 269.146 288.252 267.766 286.024 264.581C283.796 261.396 284.857 257.256 282.097 254.175C279.337 251.093 279.127 251.947 279.766 254.175C280.045 256.237 279.888 258.336 279.305 260.334V260.334Z" fill="url(#paint5_linear_21_36)"/>
<path d="M266.789 267.129C261.855 267.129 260.584 280.51 257.721 280.667C254.858 280.824 255.654 280.51 255.179 276.685C254.704 272.86 253.426 271.112 255.179 269.678C256.932 268.245 253.751 265.389 255.814 263.465C257.878 261.542 260.098 263.626 261.698 264.423C263.297 265.221 264.722 263.147 266.789 263.783C268.856 264.42 269.823 267.129 266.789 267.129Z" fill="url(#paint6_linear_21_36)"/>
<path d="M363.665 364.376C361.329 365.564 359.27 367.232 357.621 369.271C355.973 371.31 354.772 373.674 354.098 376.208C350.313 386.718 350.706 381.606 340.389 388.398C330.071 395.19 330.143 402.626 325.002 407.916C319.861 413.207 315.72 406.236 314.863 402.733C314.006 399.23 315.291 395.405 321.682 389.435C328.072 383.465 325.894 371.597 325.073 364.912C324.252 358.228 331.642 355.046 332.499 348.04C333.356 341.033 330.785 335.921 332.499 328.093C333.979 322.168 336.111 316.425 338.853 310.97L344.28 322.659L360.559 357.691L363.665 364.376Z" fill="url(#paint7_linear_21_36)"/>
<path opacity="0.1" d="M198.444 345.923C197.801 354.396 191.661 356.54 174.917 366.514C158.174 376.487 164.314 384.781 150.534 383.279C137.396 381.885 140.573 394.289 128.185 400.224C125.008 397.292 121.938 394.254 119.046 391.108C111.521 383.276 104.61 374.874 98.3756 365.978C96.0194 362.689 93.7703 359.293 91.6282 355.861C97.2689 347.782 104.23 345.387 114.476 349.319C128.899 354.825 132.291 343.993 147.963 348.676C163.636 353.359 164.671 341.455 175.845 343.35C187.02 345.244 199.086 337.423 198.444 345.923Z" fill="#1D2D5F"/>
<path opacity="0.1" d="M145.036 370.131C137.146 376.816 137.575 384.573 131.22 386.254C127.037 387.541 122.966 389.167 119.046 391.115C111.521 383.283 104.61 374.882 98.3756 365.985C104.766 359.121 109.086 359.443 116.262 361.516C124.33 363.876 125.401 356.941 135.04 359.3C144.679 361.659 159.959 356.726 163.35 360.229C166.742 363.733 152.926 363.44 145.036 370.131Z" fill="#1D2D5F"/>
<path opacity="0.1" d="M224.002 334.978C226.859 334.39 229.636 333.464 232.274 332.218C237.15 330.431 240.128 322.874 242.769 324.786C245.411 326.699 249.238 329.791 240.756 337.101C232.273 344.411 232.802 345.916 226.865 342.517C220.928 339.117 219.761 335.721 224.002 334.978Z" fill="#1D2D5F"/>
<path opacity="0.1" d="M360.559 357.691C357.061 359.014 351.384 359.944 349.135 364.912C346.172 371.49 347.314 374.993 341.388 377.674C335.462 380.355 332.285 388.291 329.179 385.396C326.073 382.5 332.07 374.993 332.07 368.308C332.07 361.624 339.603 356.548 340.21 347.504C340.746 340.104 338.175 329.558 344.28 322.659L347.1 328.772L358.382 353.009L360.559 357.691Z" fill="#1D2D5F"/>
<path opacity="0.1" d="M358.382 353.009C357.882 353.438 357.418 353.902 356.989 354.331C353.169 358.192 346.815 355.046 344.887 357.048C342.959 359.05 343.602 366.521 340.96 370.775C338.318 375.029 332.285 380.212 332.177 378.496C332.07 376.78 334.819 372.348 334.07 368.952C333.32 365.556 336.711 361.945 340.96 359.515C345.208 357.084 344.78 354.724 345.101 351.221C345.422 347.718 343.387 346.038 343.709 339.067C343.959 333.598 344.28 330.13 347.1 328.772L358.382 353.009Z" fill="#1D2D5F"/>
<path opacity="0.1" d="M297.805 344.747C297.891 346.904 297.53 349.054 296.745 351.064C295.961 353.074 294.769 354.899 293.246 356.426C290.904 358.876 289.066 361.763 287.838 364.923C287.413 366.939 290.383 364.816 293.671 364.923C296.959 365.03 297.063 360.676 300.351 360.408C303.639 360.14 307.134 357.774 305.349 354.331C303.564 350.889 301.107 350.042 301.85 346.327C302.593 342.613 300.576 341.552 300.365 338.685C300.154 335.818 297.805 341.351 297.805 344.747Z" fill="#1D2D5F"/>
<path opacity="0.15" d="M247.211 457.676C239.103 456.506 231.069 454.871 223.149 452.779C198.298 446.29 174.781 435.472 153.676 420.821C150.641 418.748 147.678 416.567 144.786 414.315L93.9488 253.023C95.1435 252.254 96.5828 251.961 97.9829 252.201L141.073 259.065C141.345 259.106 141.619 259.13 141.894 259.136L247.211 457.676Z" fill="#1D2D5F"/>
<path opacity="0.15" d="M335.962 430.973L335.926 431.009C335.368 431.721 334.645 432.285 333.82 432.653C333.086 433.011 332.28 433.195 331.463 433.19H282.34C281.47 433.187 280.612 433.396 279.841 433.797C279.379 434.016 278.948 434.292 278.555 434.619L189.019 220.243H189.055C190.032 219.354 191.304 218.857 192.625 218.849C192.79 218.819 192.957 218.807 193.124 218.813L239.178 221.137L335.962 430.973Z" fill="#1D2D5F"/>
<path d="M155.625 327.435L111.853 294.19C100.244 285.375 92.6073 272.303 90.6235 257.85C88.6398 243.397 92.471 228.747 101.275 217.122V217.122C110.078 205.498 123.133 197.852 137.567 195.866C152.001 193.879 166.632 197.715 178.241 206.531C189.85 215.346 197.486 228.418 199.47 242.871C201.454 257.324 197.623 271.974 188.819 283.598L155.625 327.435Z" fill="url(#paint8_linear_21_36)"/>
<path d="M163.657 247.808C164.161 251.493 163.562 255.246 161.936 258.59C160.309 261.935 157.729 264.722 154.522 266.598C151.314 268.475 147.623 269.357 143.914 269.133C140.206 268.909 136.647 267.589 133.688 265.34C130.729 263.091 128.502 260.014 127.289 256.498C126.076 252.982 125.932 249.185 126.874 245.587C127.816 241.988 129.802 238.75 132.582 236.283C135.362 233.815 138.81 232.227 142.491 231.722C144.935 231.385 147.423 231.534 149.81 232.161C152.197 232.787 154.437 233.879 156.403 235.373C158.369 236.866 160.021 238.734 161.266 240.867C162.511 243.001 163.323 245.36 163.657 247.808Z" fill="url(#paint9_linear_21_36)"/>
<path d="M500.778 126.134L417.976 106.988C411.225 105.427 404.489 109.641 402.93 116.401L362.066 293.591C360.507 300.351 364.716 307.096 371.467 308.657L454.269 327.803C461.02 329.364 467.756 325.149 469.315 318.39L510.179 141.199C511.738 134.44 507.529 127.695 500.778 126.134Z" fill="url(#paint10_linear_21_36)"/>
<path d="M501.39 150.976L482.79 231.622L465.69 305.726C465.368 307.14 464.771 308.476 463.933 309.659C463.094 310.841 462.031 311.846 460.804 312.617C459.577 313.387 458.21 313.907 456.782 314.148C455.354 314.389 453.892 314.345 452.481 314.019L379.116 297.039C377.706 296.716 376.373 296.117 375.194 295.276C374.016 294.436 373.014 293.371 372.248 292.142C371.482 290.913 370.966 289.544 370.729 288.115C370.492 286.685 370.54 285.223 370.87 283.812L406.534 129.063C407.197 126.207 408.964 123.731 411.446 122.177C413.928 120.622 416.925 120.116 419.779 120.769L461.977 130.528L493.143 137.749C495.988 138.409 498.455 140.173 500.002 142.653C501.548 145.133 502.048 148.127 501.39 150.976V150.976Z" fill="url(#paint11_linear_21_36)"/>
<path d="M501.39 150.976L482.79 231.622L451.66 224.436C448.808 223.772 446.335 222.004 444.783 219.518C443.23 217.032 442.725 214.032 443.377 211.174L461.977 130.528L493.143 137.749C495.988 138.409 498.455 140.173 500.002 142.653C501.548 145.133 502.048 148.127 501.39 150.976V150.976Z" fill="url(#paint12_linear_21_36)"/>
<path d="M457.429 188.532C456.035 186.165 454.189 184.097 451.997 182.445C449.804 180.793 447.308 179.59 444.652 178.904C441.995 178.219 439.229 178.064 436.512 178.448C433.796 178.833 431.181 179.75 428.819 181.146V181.146C426.455 182.542 424.39 184.39 422.74 186.586C421.09 188.781 419.888 191.28 419.203 193.94C418.518 196.6 418.363 199.369 418.746 202.09C419.13 204.81 420.045 207.428 421.439 209.794L432.057 227.814L450.053 217.183C452.417 215.787 454.482 213.938 456.132 211.743C457.782 209.547 458.983 207.048 459.668 204.387C460.353 201.727 460.508 198.957 460.124 196.236C459.739 193.516 458.824 190.898 457.429 188.532ZM437.651 206.091C436.284 205.737 435.053 204.985 434.113 203.93C433.173 202.876 432.566 201.566 432.369 200.166C432.172 198.766 432.395 197.339 433.007 196.066C433.62 194.792 434.596 193.729 435.812 193.011C437.028 192.293 438.429 191.952 439.839 192.031C441.248 192.11 442.603 192.606 443.731 193.455C444.859 194.305 445.711 195.471 446.178 196.805C446.645 198.139 446.706 199.581 446.355 200.95C446.121 201.86 445.71 202.716 445.146 203.467C444.582 204.218 443.875 204.85 443.067 205.327C442.259 205.805 441.364 206.118 440.435 206.249C439.505 206.38 438.559 206.326 437.651 206.091V206.091Z" fill="url(#paint13_linear_21_36)"/>
<path opacity="0.15" d="M402.722 238.993L453.937 250.156" stroke="#1D2D5F" stroke-width="2" stroke-linecap="round" stroke-linejoin="round"/>
<path opacity="0.15" d="M425.02 148.913L476.236 160.077" stroke="#1D2D5F" stroke-width="2" stroke-linecap="round" stroke-linejoin="round"/>
<path opacity="0.15" d="M399.419 252.97L433.777 259.976" stroke="#1D2D5F" stroke-linecap="round" stroke-linejoin="round"/>
<path opacity="0.15" d="M396.235 264.141L430.593 271.147" stroke="#1D2D5F" stroke-linecap="round" stroke-linejoin="round"/>
<path opacity="0.15" d="M393.018 274.511L427.376 281.518" stroke="#1D2D5F" stroke-linecap="round" stroke-linejoin="round"/>
<path opacity="0.34" d="M160.694 351.847C181.479 315.971 319.743 306.648 340.96 359.514" stroke="#1D2D5F" stroke-linecap="round" stroke-linejoin="round" stroke-dasharray="3 3"/>
<path opacity="0.34" d="M152.105 351.847L168.17 354.899" stroke="#1D2D5F" stroke-linecap="round" stroke-linejoin="round"/>
<path opacity="0.34" d="M158.467 344.25L162.265 361.448" stroke="#1D2D5F" stroke-linecap="round" stroke-linejoin="round"/>
<path opacity="0.34" d="M346.636 353.802L336.615 365.795" stroke="#1D2D5F" stroke-linecap="round" stroke-linejoin="round"/>
<path opacity="0.34" d="M335.451 357.702L347.115 363.647" stroke="#1D2D5F" stroke-linecap="round" stroke-linejoin="round"/>
<path d="M93.9452 442.688C98.3952 442.688 102.003 439.075 102.003 434.619C102.003 430.164 98.3952 426.551 93.9452 426.551C89.4951 426.551 85.8876 430.164 85.8876 434.619C85.8876 439.075 89.4951 442.688 93.9452 442.688Z" stroke="#FBBF23" stroke-miterlimit="10"/>
<path d="M508.705 104.354C508.705 105.95 508.233 107.51 507.347 108.837C506.462 110.164 505.204 111.198 503.731 111.808C502.259 112.419 500.639 112.579 499.076 112.267C497.513 111.956 496.077 111.188 494.95 110.059C493.823 108.931 493.056 107.493 492.745 105.928C492.434 104.363 492.594 102.741 493.203 101.267C493.813 99.7925 494.846 98.5324 496.171 97.6459C497.496 96.7594 499.054 96.2861 500.648 96.2861C502.784 96.2871 504.833 97.1375 506.344 98.6503C507.855 100.163 508.704 102.215 508.705 104.354V104.354Z" stroke="#FBBF23" stroke-miterlimit="10"/>
<path d="M16.9037 134.3C16.903 135.895 16.4299 137.455 15.544 138.781C14.6582 140.108 13.3996 141.141 11.9272 141.751C10.4548 142.361 8.8348 142.521 7.27202 142.209C5.70923 141.897 4.27383 141.128 3.14732 140C2.0208 138.871 1.25376 137.434 0.943145 135.869C0.63253 134.304 0.792292 132.682 1.40226 131.208C2.01222 129.734 3.04499 128.474 4.36997 127.587C5.69496 126.701 7.25265 126.228 8.84614 126.228C10.9835 126.229 13.0329 127.08 14.5439 128.593C16.0549 130.107 16.9037 132.16 16.9037 134.3V134.3Z" stroke="#FBBF23" stroke-miterlimit="10"/>
<path d="M206.526 159.126C206.526 160.722 206.054 162.282 205.169 163.608C204.284 164.935 203.025 165.969 201.553 166.58C200.081 167.191 198.461 167.351 196.898 167.04C195.335 166.729 193.9 165.961 192.773 164.833C191.646 163.705 190.878 162.267 190.567 160.702C190.255 159.138 190.414 157.516 191.024 156.041C191.633 154.567 192.665 153.307 193.99 152.42C195.314 151.533 196.872 151.059 198.465 151.058C200.603 151.058 202.652 151.908 204.164 153.421C205.676 154.934 206.525 156.986 206.526 159.126V159.126Z" stroke="white" stroke-miterlimit="10"/>
<path d="M401.076 8.85909C401.075 10.4547 400.602 12.0142 399.716 13.3405C398.83 14.6669 397.572 15.7004 396.099 16.3105C394.627 16.9206 393.007 17.0799 391.444 16.7682C389.881 16.4565 388.446 15.6878 387.319 14.5593C386.193 13.4308 385.426 11.9932 385.115 10.4282C384.804 8.86324 384.964 7.24118 385.574 5.76713C386.184 4.29307 387.217 3.03321 388.542 2.14683C389.867 1.26045 391.425 0.787354 393.018 0.787354C395.155 0.788301 397.205 1.63913 398.716 3.15277C400.227 4.66641 401.076 6.71896 401.076 8.85909V8.85909Z" stroke="#FBBF23" stroke-miterlimit="10"/>
<path d="M138.017 16.9272L124.233 30.7293" stroke="#FBBF23" stroke-linecap="round" stroke-linejoin="round"/>
<path d="M138.017 30.7293L124.233 16.9272" stroke="#FBBF23" stroke-linecap="round" stroke-linejoin="round"/>
<path d="M360.42 112.426L346.636 126.228" stroke="white" stroke-linecap="round" stroke-linejoin="round"/>
<path d="M360.42 126.228L346.636 112.426" stroke="white" stroke-linecap="round" stroke-linejoin="round"/>
<path d="M467.225 413.918L453.441 427.72" stroke="#FBBF23" stroke-linecap="round" stroke-linejoin="round"/>
<path d="M467.225 427.72L453.441 413.918" stroke="#FBBF23" stroke-linecap="round" stroke-linejoin="round"/>
<defs>
<linearGradient id="paint0_linear_21_36" x1="284.175" y1="-60.3943" x2="277.073" y2="367.8" gradientUnits="userSpaceOnUse">
<stop offset="0.244792" stop-color="#9ED6DC"/>
<stop offset="1" stop-color="#FFE7EA"/>
</linearGradient>
<linearGradient id="paint1_linear_21_36" x1="202.817" y1="296.384" x2="237.555" y2="433.179" gradientUnits="userSpaceOnUse">
<stop offset="0.484375" stop-color="#00CEBA"/>
<stop offset="1" stop-color="#058EB2"/>
</linearGradient>
<linearGradient id="paint2_linear_21_36" x1="185.854" y1="273.594" x2="174.585" y2="402.643" gradientUnits="userSpaceOnUse">
<stop stop-color="#85DD86"/>
<stop offset="1" stop-color="#64AB9D"/>
</linearGradient>
<linearGradient id="paint3_linear_21_36" x1="290.381" y1="297.73" x2="250.877" y2="421.853" gradientUnits="userSpaceOnUse">
<stop stop-color="#85DD86"/>
<stop offset="1" stop-color="#64AB9D"/>
</linearGradient>
<linearGradient id="paint4_linear_21_36" x1="269.211" y1="292.775" x2="244.799" y2="421.168" gradientUnits="userSpaceOnUse">
<stop stop-color="#85DD86"/>
<stop offset="1" stop-color="#64AB9D"/>
</linearGradient>
<linearGradient id="paint5_linear_21_36" x1="275.72" y1="294.334" x2="195.734" y2="357.493" gradientUnits="userSpaceOnUse">
<stop stop-color="#85DD86"/>
<stop offset="1" stop-color="#64AB9D"/>
</linearGradient>
<linearGradient id="paint6_linear_21_36" x1="256.29" y1="289.854" x2="212.508" y2="412.11" gradientUnits="userSpaceOnUse">
<stop stop-color="#85DD86"/>
<stop offset="1" stop-color="#64AB9D"/>
</linearGradient>
<linearGradient id="paint7_linear_21_36" x1="355.132" y1="312.65" x2="277.964" y2="395.235" gradientUnits="userSpaceOnUse">
<stop stop-color="#85DD86"/>
<stop offset="1" stop-color="#64AB9D"/>
</linearGradient>
<linearGradient id="paint8_linear_21_36" x1="153.397" y1="209.618" x2="153.397" y2="327.435" gradientUnits="userSpaceOnUse">
<stop stop-color="#FFB6A4"/>
<stop offset="1" stop-color="#EB0022"/>
</linearGradient>
<linearGradient id="paint9_linear_21_36" x1="155.001" y1="219.508" x2="136.28" y2="424.198" gradientUnits="userSpaceOnUse">
<stop stop-color="#F0F7FF"/>
<stop offset="1" stop-color="#A5CFF9"/>
</linearGradient>
<linearGradient id="paint10_linear_21_36" x1="447.447" y1="117.838" x2="317.577" y2="269.919" gradientUnits="userSpaceOnUse">
<stop stop-color="#00CAFF"/>
<stop offset="1" stop-color="#59437F"/>
</linearGradient>
<linearGradient id="paint11_linear_21_36" x1="447.794" y1="175.727" x2="331.431" y2="365.152" gradientUnits="userSpaceOnUse">
<stop stop-color="white"/>
<stop offset="1" stop-color="#1ADBC8"/>
</linearGradient>
<linearGradient id="paint12_linear_21_36" x1="643.598" y1="50.4625" x2="62.6451" y2="199.199" gradientUnits="userSpaceOnUse">
<stop stop-color="white"/>
<stop offset="1" stop-color="#E3FAF7"/>
</linearGradient>
<linearGradient id="paint13_linear_21_36" x1="431.955" y1="208.927" x2="431.955" y2="253.741" gradientUnits="userSpaceOnUse">
<stop stop-color="#FFB6A4"/>
<stop offset="1" stop-color="#EB0022"/>
</linearGradient>
</defs>
</svg>
