<svg width="488" height="469" viewBox="0 0 488 469" fill="none" xmlns="http://www.w3.org/2000/svg">
<path d="M459.552 241.182C459.56 257.033 457.8 272.837 454.305 288.298C449.943 307.634 442.852 326.251 433.244 343.589C414.941 376.76 388.131 404.457 355.571 423.83C334.869 436.151 312.208 444.832 288.571 449.494C285.609 450.101 282.646 450.6 279.683 451.064C277.078 451.457 274.508 451.814 271.866 452.099C263.692 453.062 255.467 453.539 247.236 453.527C241.489 453.527 235.814 453.313 230.174 452.849C189.038 449.537 149.758 434.31 117.139 409.029C84.5199 383.749 59.9749 349.511 46.5055 310.503C33.0362 271.495 31.2265 229.407 41.2976 189.386C51.3688 149.366 72.8843 113.148 103.213 85.1606C133.542 57.1736 171.369 38.6309 212.069 31.8003C252.769 24.9697 294.578 30.1472 332.382 46.6995C370.186 63.2519 402.347 90.4617 424.932 125.001C447.518 159.541 459.548 199.914 459.552 241.182V241.182Z" fill="url(#paint0_linear_21_92)"/>
<path opacity="0.05" d="M341.222 245.358C295.999 245.361 252.629 263.326 220.652 295.303C188.674 327.279 170.708 370.648 170.706 415.87C170.702 423.918 171.263 431.957 172.383 439.928C190.941 446.938 210.398 451.288 230.174 452.849C221.472 426.701 222.277 398.321 232.447 372.709C242.617 347.096 261.499 325.894 285.767 312.836C310.036 299.779 338.134 295.704 365.112 301.329C392.09 306.955 416.218 321.92 433.244 343.589C442.852 326.251 449.943 307.634 454.305 288.298C423.169 260.574 382.913 245.288 341.222 245.358V245.358Z" fill="#1D2D5F"/>
<path d="M355.571 423.829C334.869 436.151 312.208 444.832 288.571 449.494C285.609 450.1 282.646 450.6 279.683 451.064L276.542 446.781L335.047 404.412L338.081 407.267L355.571 423.829Z" fill="url(#paint1_linear_21_92)"/>
<path d="M322.339 395.06L270.581 438.321L263.656 422.58L262.942 420.938C254.554 415.108 245.681 410.009 236.421 405.697C219.146 399.166 205.031 386.264 196.977 369.645L268.047 350.585C268.047 350.585 269.225 350.728 271.152 351.12C277.756 352.477 292.998 356.653 298.566 367.504C299.5 369.299 300.537 371.039 301.672 372.715C302.944 374.628 304.314 376.475 305.777 378.248V378.284C310.77 384.372 316.315 389.988 322.339 395.06V395.06Z" fill="url(#paint2_linear_21_92)"/>
<path opacity="0.25" d="M270.32 375.878C266.665 390.095 277.295 408.224 267.529 408.224C257.763 408.224 224.53 376.206 210.773 372.919C197.016 369.631 267.529 359.558 267.529 359.558H277.995L270.32 375.878Z" fill="black"/>
<path d="M265.287 179.181V365.505C265.287 369.131 263.847 372.608 261.283 375.172C258.719 377.736 255.242 379.176 251.616 379.176H13.707C11.9089 379.18 10.1277 378.829 8.46532 378.144C6.80295 377.458 5.29197 376.452 4.01888 375.182C2.74579 373.913 1.73559 372.404 1.04598 370.744C0.356368 369.083 0.000934538 367.303 0 365.505V179.181C0.00850857 175.551 1.45644 172.074 4.02618 169.511C6.59592 166.948 10.0775 165.509 13.707 165.51H251.616C255.24 165.516 258.713 166.959 261.276 169.521C263.838 172.084 265.281 175.557 265.287 179.181Z" fill="#D5E2EF"/>
<path d="M265.287 179.181V204.524H0V179.181C0.00850857 175.551 1.45644 172.074 4.02618 169.511C6.59592 166.948 10.0775 165.509 13.707 165.51H251.616C255.24 165.516 258.713 166.959 261.276 169.521C263.838 172.084 265.281 175.557 265.287 179.181Z" fill="url(#paint3_linear_21_92)"/>
<path d="M278.434 179.181V365.505C278.434 369.131 276.994 372.608 274.43 375.172C271.866 377.736 268.388 379.176 264.763 379.176H26.8535C25.0554 379.18 23.2742 378.829 21.6118 378.144C19.9495 377.458 18.4386 376.452 17.1655 375.182C15.8924 373.913 14.8821 372.404 14.1925 370.744C13.5029 369.083 13.1475 367.303 13.1465 365.505V179.181C13.155 175.551 14.6031 172.074 17.1728 169.511C19.7425 166.948 23.2241 165.509 26.8535 165.51H264.763C268.386 165.516 271.86 166.959 274.422 169.521C276.985 172.084 278.427 175.557 278.434 179.181V179.181Z" fill="url(#paint4_linear_21_92)"/>
<path d="M278.434 179.181V204.524H13.1358V179.181C13.1443 175.551 14.5923 172.074 17.162 169.511C19.7318 166.948 23.2134 165.509 26.8428 165.51H264.752C268.378 165.514 271.854 166.955 274.419 169.517C276.983 172.08 278.427 175.555 278.434 179.181Z" fill="url(#paint5_linear_21_92)"/>
<path d="M44.6476 190.242C50.1517 190.242 54.6137 185.781 54.6137 180.277C54.6137 174.773 50.1517 170.311 44.6476 170.311C39.1434 170.311 34.6814 174.773 34.6814 180.277C34.6814 185.781 39.1434 190.242 44.6476 190.242Z" fill="url(#paint6_linear_21_92)"/>
<path d="M94.0499 180.276C94.0499 182.248 93.4654 184.174 92.3703 185.813C91.2752 187.452 89.7188 188.729 87.8977 189.484C86.0766 190.238 84.0727 190.435 82.1395 190.051C80.2062 189.666 78.4305 188.717 77.0367 187.323C75.6429 185.93 74.6937 184.154 74.3091 182.221C73.9246 180.288 74.1219 178.284 74.8762 176.463C75.6306 174.642 76.9079 173.085 78.5469 171.99C80.1858 170.895 82.1127 170.311 84.0838 170.311C86.727 170.311 89.2619 171.361 91.131 173.23C93 175.099 94.0499 177.633 94.0499 180.276V180.276Z" fill="url(#paint7_linear_21_92)"/>
<path d="M123.52 190.242C129.024 190.242 133.486 185.781 133.486 180.277C133.486 174.773 129.024 170.311 123.52 170.311C118.016 170.311 113.554 174.773 113.554 180.277C113.554 185.781 118.016 190.242 123.52 190.242Z" fill="url(#paint8_linear_21_92)"/>
<path d="M172.919 180.276C172.919 182.248 172.334 184.174 171.239 185.813C170.144 187.452 168.588 188.729 166.766 189.484C164.945 190.238 162.941 190.435 161.008 190.051C159.075 189.666 157.299 188.717 155.905 187.323C154.512 185.93 153.562 184.154 153.178 182.221C152.793 180.288 152.991 178.284 153.745 176.463C154.499 174.642 155.777 173.085 157.416 171.99C159.055 170.895 160.981 170.311 162.953 170.311C165.596 170.311 168.131 171.361 170 173.23C171.869 175.099 172.919 177.633 172.919 180.276V180.276Z" fill="url(#paint9_linear_21_92)"/>
<path d="M202.389 190.242C207.893 190.242 212.355 185.781 212.355 180.277C212.355 174.773 207.893 170.311 202.389 170.311C196.885 170.311 192.423 174.773 192.423 180.277C192.423 185.781 196.885 190.242 202.389 190.242Z" fill="url(#paint10_linear_21_92)"/>
<path d="M251.787 180.276C251.787 182.248 251.203 184.174 250.108 185.813C249.013 187.452 247.456 188.729 245.635 189.484C243.814 190.238 241.81 190.435 239.877 190.051C237.944 189.666 236.168 188.717 234.774 187.323C233.38 185.93 232.431 184.154 232.047 182.221C231.662 180.288 231.859 178.284 232.614 176.463C233.368 174.642 234.645 173.085 236.284 171.99C237.923 170.895 239.85 170.311 241.821 170.311C244.464 170.311 246.999 171.361 248.868 173.23C250.737 175.099 251.787 177.633 251.787 180.276V180.276Z" fill="url(#paint11_linear_21_92)"/>
<g opacity="0.15">
<path d="M61.0889 238.954H42.8236C39.6989 238.954 37.1659 241.487 37.1659 244.612V262.877C37.1659 266.001 39.6989 268.534 42.8236 268.534H61.0889C64.2135 268.534 66.7466 266.001 66.7466 262.877V244.612C66.7466 241.487 64.2135 238.954 61.0889 238.954Z" fill="#1D2D5F"/>
<path d="M98.6224 238.954H80.3571C77.2325 238.954 74.6994 241.487 74.6994 244.612V262.877C74.6994 266.001 77.2325 268.534 80.3571 268.534H98.6224C101.747 268.534 104.28 266.001 104.28 262.877V244.612C104.28 241.487 101.747 238.954 98.6224 238.954Z" fill="#1D2D5F"/>
<path d="M136.156 238.954H117.891C114.766 238.954 112.233 241.487 112.233 244.612V262.877C112.233 266.001 114.766 268.534 117.891 268.534H136.156C139.281 268.534 141.814 266.001 141.814 262.877V244.612C141.814 241.487 139.281 238.954 136.156 238.954Z" fill="#1D2D5F"/>
<path d="M173.69 238.954H155.424C152.3 238.954 149.767 241.487 149.767 244.612V262.877C149.767 266.001 152.3 268.534 155.424 268.534H173.69C176.814 268.534 179.347 266.001 179.347 262.877V244.612C179.347 241.487 176.814 238.954 173.69 238.954Z" fill="#1D2D5F"/>
<path d="M211.223 238.954H192.958C189.833 238.954 187.3 241.487 187.3 244.612V262.877C187.3 266.001 189.833 268.534 192.958 268.534H211.223C214.348 268.534 216.881 266.001 216.881 262.877V244.612C216.881 241.487 214.348 238.954 211.223 238.954Z" fill="#1D2D5F"/>
<path d="M248.757 238.954H230.492C227.367 238.954 224.834 241.487 224.834 244.612V262.877C224.834 266.001 227.367 268.534 230.492 268.534H248.757C251.882 268.534 254.415 266.001 254.415 262.877V244.612C254.415 241.487 251.882 238.954 248.757 238.954Z" fill="#1D2D5F"/>
</g>
<path opacity="0.15" d="M61.0889 279.985H42.8236C39.6989 279.985 37.1659 282.518 37.1659 285.643V303.907C37.1659 307.032 39.6989 309.565 42.8236 309.565H61.0889C64.2135 309.565 66.7466 307.032 66.7466 303.907V285.643C66.7466 282.518 64.2135 279.985 61.0889 279.985Z" fill="#1D2D5F"/>
<path opacity="0.15" d="M98.6224 279.985H80.3571C77.2325 279.985 74.6994 282.518 74.6994 285.643V303.907C74.6994 307.032 77.2325 309.565 80.3571 309.565H98.6224C101.747 309.565 104.28 307.032 104.28 303.907V285.643C104.28 282.518 101.747 279.985 98.6224 279.985Z" fill="#1D2D5F"/>
<path d="M136.156 279.985H117.891C114.766 279.985 112.233 282.518 112.233 285.643V303.907C112.233 307.032 114.766 309.565 117.891 309.565H136.156C139.281 309.565 141.814 307.032 141.814 303.907V285.643C141.814 282.518 139.281 279.985 136.156 279.985Z" fill="url(#paint12_linear_21_92)"/>
<path d="M173.69 279.985H155.424C152.3 279.985 149.767 282.518 149.767 285.643V303.907C149.767 307.032 152.3 309.565 155.424 309.565H173.69C176.814 309.565 179.347 307.032 179.347 303.907V285.643C179.347 282.518 176.814 279.985 173.69 279.985Z" fill="url(#paint13_linear_21_92)"/>
<path d="M211.223 279.985H192.958C189.833 279.985 187.3 282.518 187.3 285.643V303.907C187.3 307.032 189.833 309.565 192.958 309.565H211.223C214.348 309.565 216.881 307.032 216.881 303.907V285.643C216.881 282.518 214.348 279.985 211.223 279.985Z" fill="url(#paint14_linear_21_92)"/>
<path opacity="0.15" d="M248.757 279.985H230.492C227.367 279.985 224.834 282.518 224.834 285.643V303.907C224.834 307.032 227.367 309.565 230.492 309.565H248.757C251.882 309.565 254.415 307.032 254.415 303.907V285.643C254.415 282.518 251.882 279.985 248.757 279.985Z" fill="#1D2D5F"/>
<g opacity="0.15">
<path d="M61.0889 321.019H42.8236C39.6989 321.019 37.1659 323.552 37.1659 326.677V344.941C37.1659 348.066 39.6989 350.599 42.8236 350.599H61.0889C64.2135 350.599 66.7466 348.066 66.7466 344.941V326.677C66.7466 323.552 64.2135 321.019 61.0889 321.019Z" fill="#1D2D5F"/>
<path d="M98.6224 321.019H80.3571C77.2325 321.019 74.6994 323.552 74.6994 326.677V344.941C74.6994 348.066 77.2325 350.599 80.3571 350.599H98.6224C101.747 350.599 104.28 348.066 104.28 344.941V326.677C104.28 323.552 101.747 321.019 98.6224 321.019Z" fill="#1D2D5F"/>
<path d="M136.156 321.019H117.891C114.766 321.019 112.233 323.552 112.233 326.677V344.941C112.233 348.066 114.766 350.599 117.891 350.599H136.156C139.281 350.599 141.814 348.066 141.814 344.941V326.677C141.814 323.552 139.281 321.019 136.156 321.019Z" fill="#1D2D5F"/>
<path d="M173.69 321.019H155.424C152.3 321.019 149.767 323.552 149.767 326.677V344.941C149.767 348.066 152.3 350.599 155.424 350.599H173.69C176.814 350.599 179.347 348.066 179.347 344.941V326.677C179.347 323.552 176.814 321.019 173.69 321.019Z" fill="#1D2D5F"/>
<path d="M211.223 321.019H192.958C189.833 321.019 187.3 323.552 187.3 326.677V344.941C187.3 348.066 189.833 350.599 192.958 350.599H211.223C214.348 350.599 216.881 348.066 216.881 344.941V326.677C216.881 323.552 214.348 321.019 211.223 321.019Z" fill="#1D2D5F"/>
<path d="M248.757 321.019H230.492C227.367 321.019 224.834 323.552 224.834 326.677V344.941C224.834 348.066 227.367 350.599 230.492 350.599H248.757C251.882 350.599 254.415 348.066 254.415 344.941V326.677C254.415 323.552 251.882 321.019 248.757 321.019Z" fill="#1D2D5F"/>
</g>
<path opacity="0.15" d="M37.1659 225.016H106.886" stroke="#1D2D5F" stroke-width="2" stroke-linecap="round" stroke-linejoin="round"/>
<path d="M124.676 294.273C125.547 295.998 126.537 297.66 127.639 299.246C127.725 299.363 127.836 299.496 127.996 299.488C128.102 299.468 128.197 299.408 128.26 299.321L133.557 293.742" stroke="white" stroke-miterlimit="10"/>
<path d="M160.35 292.931C161.494 294.135 162.737 295.241 164.066 296.237C164.325 296.48 164.631 296.668 164.965 296.791C165.298 296.914 165.653 296.968 166.008 296.95C166.483 296.819 166.911 296.557 167.243 296.194C168.705 294.838 169.993 293.307 171.08 291.636" stroke="white" stroke-miterlimit="10"/>
<path d="M197.898 293.106C198.54 294.711 199.572 296.13 200.9 297.236C200.982 297.323 201.08 297.393 201.19 297.441C201.299 297.489 201.416 297.516 201.536 297.518C201.749 297.465 201.938 297.339 202.067 297.161C203.561 295.537 204.968 293.835 206.283 292.064" stroke="white" stroke-miterlimit="10"/>
<path d="M44.6477 142.319C43.9377 142.319 43.2346 142.459 42.5787 142.731C41.9228 143.003 41.3268 143.401 40.825 143.903C40.3231 144.406 39.9251 145.002 39.6537 145.658C39.3823 146.314 39.2429 147.017 39.2434 147.727V178.26C39.2429 178.97 39.3823 179.673 39.6537 180.329C39.9251 180.985 40.3231 181.581 40.825 182.083C41.3268 182.586 41.9228 182.984 42.5787 183.256C43.2346 183.528 43.9377 183.667 44.6477 183.667V183.667C46.0819 183.667 47.4574 183.098 48.4715 182.084C49.4857 181.07 50.0554 179.694 50.0554 178.26V147.727C50.0554 146.293 49.4857 144.917 48.4715 143.903C47.4574 142.889 46.0819 142.319 44.6477 142.319V142.319Z" fill="url(#paint15_linear_21_92)"/>
<path d="M84.0838 142.319C82.6496 142.319 81.274 142.889 80.2598 143.903C79.2457 144.917 78.6759 146.293 78.6759 147.727V178.26C78.6759 179.694 79.2457 181.07 80.2598 182.084C81.274 183.098 82.6496 183.667 84.0838 183.667V183.667C85.5181 183.667 86.8936 183.098 87.9077 182.084C88.9219 181.07 89.4916 179.694 89.4916 178.26V147.727C89.4916 146.293 88.9219 144.917 87.9077 143.903C86.8936 142.889 85.5181 142.319 84.0838 142.319V142.319Z" fill="url(#paint16_linear_21_92)"/>
<path d="M123.52 142.319C122.086 142.319 120.71 142.889 119.696 143.903C118.682 144.917 118.112 146.293 118.112 147.727V178.26C118.112 179.694 118.682 181.07 119.696 182.084C120.71 183.098 122.086 183.667 123.52 183.667V183.667C124.23 183.667 124.933 183.528 125.589 183.256C126.245 182.984 126.841 182.586 127.343 182.083C127.844 181.581 128.242 180.985 128.514 180.329C128.785 179.673 128.925 178.97 128.924 178.26V147.727C128.925 147.017 128.785 146.314 128.514 145.658C128.242 145.002 127.844 144.406 127.343 143.903C126.841 143.401 126.245 143.003 125.589 142.731C124.933 142.459 124.23 142.319 123.52 142.319Z" fill="url(#paint17_linear_21_92)"/>
<path d="M162.953 142.319C161.518 142.319 160.143 142.889 159.129 143.903C158.114 144.917 157.545 146.293 157.545 147.727V178.26C157.545 179.694 158.114 181.07 159.129 182.084C160.143 183.098 161.518 183.667 162.953 183.667V183.667C164.387 183.667 165.762 183.098 166.776 182.084C167.791 181.07 168.36 179.694 168.36 178.26V147.727C168.36 146.293 167.791 144.917 166.776 143.903C165.762 142.889 164.387 142.319 162.953 142.319V142.319Z" fill="url(#paint18_linear_21_92)"/>
<path d="M202.389 142.319C200.954 142.319 199.579 142.889 198.565 143.903C197.551 144.917 196.981 146.293 196.981 147.727V178.26C196.981 179.694 197.551 181.07 198.565 182.084C199.579 183.098 200.954 183.667 202.389 183.667V183.667C203.099 183.667 203.802 183.528 204.458 183.256C205.114 182.984 205.709 182.586 206.211 182.083C206.713 181.581 207.111 180.985 207.383 180.329C207.654 179.673 207.793 178.97 207.793 178.26V147.727C207.793 147.017 207.654 146.314 207.383 145.658C207.111 145.002 206.713 144.406 206.211 143.903C205.709 143.401 205.114 143.003 204.458 142.731C203.802 142.459 203.099 142.319 202.389 142.319V142.319Z" fill="url(#paint19_linear_21_92)"/>
<path d="M241.821 142.319C240.387 142.319 239.012 142.889 237.997 143.903C236.983 144.917 236.413 146.293 236.413 147.727V178.26C236.413 179.694 236.983 181.07 237.997 182.084C239.012 183.098 240.387 183.667 241.821 183.667V183.667C243.255 183.667 244.631 183.098 245.645 182.084C246.659 181.07 247.229 179.694 247.229 178.26V147.727C247.229 146.293 246.659 144.917 245.645 143.903C244.631 142.889 243.255 142.319 241.821 142.319V142.319Z" fill="url(#paint20_linear_21_92)"/>
<path d="M305.777 383.209C305.777 383.209 302.957 383.638 298.887 384.03C289.928 384.958 274.829 385.779 270.081 381.817C269.665 381.505 269.32 381.108 269.067 380.653C268.815 380.198 268.662 379.694 268.618 379.176C268.047 371.68 272.473 359.044 271.152 351.12C270.943 349.13 270.047 347.274 268.618 345.873C261.978 339.984 258.338 329.882 257.053 318.924C257.024 318.869 257.011 318.807 257.017 318.745C255.732 307.716 262.55 312.749 280.362 323.421C287.536 327.705 288.821 331.024 297.745 340.59C299.71 342.934 301.147 345.673 301.957 348.622V348.657C304.547 358.306 305.831 368.258 305.777 378.248V378.284C305.812 381.318 305.777 383.209 305.777 383.209Z" fill="url(#paint21_linear_21_92)"/>
<path opacity="0.25" d="M322.339 395.06L270.581 438.321L263.656 422.58C278.719 413.728 292.498 402.591 298.887 384.03C300.149 380.349 301.081 376.562 301.672 372.715C302.817 364.743 302.913 356.655 301.957 348.657C304.547 358.306 305.831 368.258 305.777 378.248V378.284C310.77 384.373 316.315 389.988 322.339 395.06V395.06Z" fill="black"/>
<path opacity="0.25" d="M270.142 379.176C270.18 380.057 270.156 380.94 270.071 381.817C269.654 381.505 269.309 381.108 269.057 380.653C268.804 380.198 268.651 379.694 268.607 379.176C267.893 369.646 275.246 351.834 268.607 345.873C261.968 339.984 258.327 329.882 257.042 318.924C258.113 318.388 259.79 319.959 261.468 323.421C265.716 332.095 270.142 339.734 276.317 344.41C282.492 349.086 269.724 366.255 270.142 379.176Z" fill="black"/>
<path d="M338.081 407.267C329.193 418.904 303.599 439.928 288.571 449.494C285.609 450.1 282.646 450.6 279.683 451.064C277.078 451.457 274.507 451.814 271.866 452.099C269.464 450.635 267.443 448.623 265.966 446.229C264.49 443.834 263.601 441.125 263.371 438.321C263.799 432.396 328.693 384.78 328.693 384.78C331.834 382.495 336.76 392.526 341.008 400.164C341.722 401.485 340.544 404.019 338.081 407.267Z" fill="url(#paint22_linear_21_92)"/>
<path d="M404.064 165.521H308.025C302.925 165.521 298.791 169.655 298.791 174.755V317.882C298.791 322.982 302.925 327.116 308.025 327.116H404.064C409.164 327.116 413.298 322.982 413.298 317.882V174.755C413.298 169.655 409.164 165.521 404.064 165.521Z" fill="url(#paint23_linear_21_92)"/>
<path opacity="0.15" d="M318.513 190.242H365.905" stroke="#1D2D5F" stroke-width="2" stroke-linecap="round" stroke-linejoin="round"/>
<path opacity="0.15" d="M318.513 204.524H395.275" stroke="#1D2D5F" stroke-linecap="round" stroke-linejoin="round"/>
<path opacity="0.15" d="M318.513 218.337H395.275" stroke="#1D2D5F" stroke-linecap="round" stroke-linejoin="round"/>
<path opacity="0.15" d="M318.513 232.151H395.275" stroke="#1D2D5F" stroke-linecap="round" stroke-linejoin="round"/>
<path opacity="0.15" d="M318.513 272.343H395.275" stroke="#1D2D5F" stroke-linecap="round" stroke-linejoin="round"/>
<path opacity="0.15" d="M395.275 282.905H318.513V312.074H395.275V282.905Z" stroke="#1D2D5F" stroke-linecap="round" stroke-linejoin="round"/>
<path opacity="0.15" d="M339.498 258.147L339.455 258.004L336.314 247.857C336.474 247.7 336.646 247.546 336.806 247.389C338.279 246.2 339.377 244.611 339.969 242.813C340.031 242.573 340.031 242.321 339.969 242.081C339.871 241.727 339.637 241.426 339.318 241.244C338.999 241.062 338.621 241.014 338.266 241.11C336.467 241.7 334.878 242.798 333.69 244.273L333.233 244.748L322.785 241.324L322.646 241.282C322.356 241.187 322.04 241.207 321.764 241.337C321.488 241.468 321.272 241.698 321.16 241.982C321.048 242.266 321.048 242.583 321.161 242.866C321.274 243.15 321.491 243.38 321.768 243.509L330.517 247.585C330.313 247.799 330.103 248.006 329.903 248.224C328.243 250.009 326.644 251.865 325.084 253.753L322.032 252.936C321.73 252.871 321.414 252.925 321.151 253.087C320.887 253.248 320.696 253.505 320.615 253.803C320.535 254.102 320.573 254.419 320.72 254.691C320.868 254.963 321.114 255.168 321.408 255.263L323.424 255.802C323.217 256.066 322.996 256.32 322.789 256.584C322.608 256.817 322.518 257.109 322.537 257.404C322.556 257.698 322.681 257.976 322.89 258.185C323.099 258.394 323.377 258.52 323.672 258.538C323.967 258.557 324.258 258.467 324.492 258.286C324.774 258.072 325.041 257.837 325.32 257.619L325.976 259.85C326.031 260.043 326.136 260.219 326.28 260.36C326.469 260.551 326.716 260.672 326.982 260.706C327.248 260.74 327.517 260.684 327.748 260.547C327.978 260.41 328.157 260.2 328.254 259.95C328.352 259.7 328.363 259.425 328.286 259.168L327.347 255.956C329.228 254.403 331.074 252.811 332.855 251.155C333.062 250.966 333.262 250.762 333.465 250.569L337.26 258.975C337.387 259.251 337.614 259.468 337.894 259.583C338.175 259.697 338.489 259.702 338.773 259.594C339.056 259.487 339.289 259.276 339.424 259.005C339.558 258.733 339.585 258.42 339.498 258.129V258.147Z" fill="#1D2D5F"/>
<path d="M21.2029 110.826C25.6524 110.826 29.2594 107.219 29.2594 102.77C29.2594 98.3206 25.6524 94.7137 21.2029 94.7137C16.7535 94.7137 13.1465 98.3206 13.1465 102.77C13.1465 107.219 16.7535 110.826 21.2029 110.826Z" stroke="#058EB2" stroke-miterlimit="10"/>
<path d="M267.718 110.83C267.718 112.423 267.246 113.98 266.361 115.305C265.476 116.63 264.218 117.662 262.746 118.272C261.274 118.882 259.654 119.042 258.091 118.731C256.529 118.421 255.093 117.654 253.966 116.527C252.839 115.401 252.072 113.966 251.761 112.404C251.449 110.841 251.608 109.221 252.218 107.749C252.827 106.277 253.859 105.019 255.183 104.133C256.508 103.247 258.065 102.774 259.658 102.773C261.795 102.773 263.845 103.622 265.356 105.133C266.868 106.644 267.717 108.693 267.718 110.83V110.83Z" stroke="white" stroke-miterlimit="10"/>
<path d="M169.103 460.156C169.103 461.75 168.63 463.308 167.744 464.633C166.859 465.959 165.6 466.992 164.127 467.602C162.654 468.212 161.034 468.371 159.47 468.06C157.907 467.749 156.471 466.982 155.344 465.855C154.216 464.727 153.449 463.291 153.138 461.728C152.827 460.164 152.986 458.544 153.596 457.071C154.206 455.598 155.239 454.34 156.565 453.454C157.89 452.568 159.449 452.096 161.043 452.096C163.18 452.096 165.231 452.945 166.742 454.456C168.254 455.968 169.103 458.018 169.103 460.156V460.156Z" stroke="#058EB2" stroke-linecap="round" stroke-linejoin="round"/>
<path d="M487.476 347.083L473.694 360.865" stroke="#058EB2" stroke-linecap="round" stroke-linejoin="round"/>
<path d="M487.476 360.865L473.694 347.083" stroke="#058EB2" stroke-linecap="round" stroke-linejoin="round"/>
<path d="M156.656 0.52356L142.874 14.3051" stroke="#058EB2" stroke-linecap="round" stroke-linejoin="round"/>
<path d="M156.656 14.3051L142.874 0.52356" stroke="#058EB2" stroke-linecap="round" stroke-linejoin="round"/>
<path d="M372.798 356.249L359.016 370.031" stroke="white" stroke-miterlimit="10"/>
<path d="M372.798 370.031L359.016 356.249" stroke="white" stroke-miterlimit="10"/>
<defs>
<linearGradient id="paint0_linear_21_92" x1="270.572" y1="-17.8407" x2="228.108" y2="453.952" gradientUnits="userSpaceOnUse">
<stop stop-color="#AED9DE"/>
<stop offset="1" stop-color="#FFE9FF"/>
</linearGradient>
<linearGradient id="paint1_linear_21_92" x1="330.44" y1="466.413" x2="322.133" y2="414.865" gradientUnits="userSpaceOnUse">
<stop stop-color="white"/>
<stop offset="1" stop-color="#A5CFF9"/>
</linearGradient>
<linearGradient id="paint2_linear_21_92" x1="308.048" y1="425.6" x2="253.351" y2="324.869" gradientUnits="userSpaceOnUse">
<stop stop-color="#FFB6A4"/>
<stop offset="1" stop-color="#FFD1C9"/>
</linearGradient>
<linearGradient id="paint3_linear_21_92" x1="158.111" y1="137.849" x2="156.947" y2="248.653" gradientUnits="userSpaceOnUse">
<stop stop-color="#FFB6A4"/>
<stop offset="1" stop-color="#EB0022"/>
</linearGradient>
<linearGradient id="paint4_linear_21_92" x1="112.629" y1="223.413" x2="232.448" y2="495.611" gradientUnits="userSpaceOnUse">
<stop stop-color="white"/>
<stop offset="1" stop-color="#A5CFF9"/>
</linearGradient>
<linearGradient id="paint5_linear_21_92" x1="113.949" y1="84.3221" x2="115.84" y2="376.854" gradientUnits="userSpaceOnUse">
<stop stop-color="#FFB6A4"/>
<stop offset="1" stop-color="#EB0022"/>
</linearGradient>
<linearGradient id="paint6_linear_21_92" x1="36.874" y1="119.644" x2="53.4169" y2="248.563" gradientUnits="userSpaceOnUse">
<stop stop-color="#FFB6A4"/>
<stop offset="1" stop-color="#EB0022"/>
</linearGradient>
<linearGradient id="paint7_linear_21_92" x1="75.6724" y1="114.661" x2="92.2151" y2="243.58" gradientUnits="userSpaceOnUse">
<stop stop-color="#FFB6A4"/>
<stop offset="1" stop-color="#EB0022"/>
</linearGradient>
<linearGradient id="paint8_linear_21_92" x1="114.471" y1="109.698" x2="130.994" y2="238.617" gradientUnits="userSpaceOnUse">
<stop stop-color="#EB0022"/>
<stop offset="1" stop-color="#FF6586"/>
</linearGradient>
<linearGradient id="paint9_linear_21_92" x1="153.265" y1="104.715" x2="169.788" y2="233.634" gradientUnits="userSpaceOnUse">
<stop stop-color="#EB0022"/>
<stop offset="1" stop-color="#FF6586"/>
</linearGradient>
<linearGradient id="paint10_linear_21_92" x1="192.064" y1="99.7325" x2="208.587" y2="228.651" gradientUnits="userSpaceOnUse">
<stop stop-color="#FFB6A4"/>
<stop offset="1" stop-color="#EB0022"/>
</linearGradient>
<linearGradient id="paint11_linear_21_92" x1="230.859" y1="94.7497" x2="247.381" y2="223.688" gradientUnits="userSpaceOnUse">
<stop stop-color="#FFB6A4"/>
<stop offset="1" stop-color="#EB0022"/>
</linearGradient>
<linearGradient id="paint12_linear_21_92" x1="126.373" y1="276.465" x2="128.088" y2="324.828" gradientUnits="userSpaceOnUse">
<stop stop-color="#85DD86"/>
<stop offset="1" stop-color="#00B53E"/>
</linearGradient>
<linearGradient id="paint13_linear_21_92" x1="163.877" y1="275.163" x2="165.563" y2="323.497" gradientUnits="userSpaceOnUse">
<stop stop-color="#85DD86"/>
<stop offset="1" stop-color="#00B53E"/>
</linearGradient>
<linearGradient id="paint14_linear_21_92" x1="201.351" y1="273.862" x2="203.067" y2="322.195" gradientUnits="userSpaceOnUse">
<stop stop-color="#85DD86"/>
<stop offset="1" stop-color="#00B53E"/>
</linearGradient>
<linearGradient id="paint15_linear_21_92" x1="43.9899" y1="143.063" x2="67.0378" y2="190.733" gradientUnits="userSpaceOnUse">
<stop stop-color="#058EB2"/>
<stop offset="1" stop-color="#1D2D5F"/>
</linearGradient>
<linearGradient id="paint16_linear_21_92" x1="83.3808" y1="141.74" x2="106.424" y2="189.416" gradientUnits="userSpaceOnUse">
<stop stop-color="#058EB2"/>
<stop offset="1" stop-color="#1D2D5F"/>
</linearGradient>
<linearGradient id="paint17_linear_21_92" x1="122.772" y1="140.459" x2="145.82" y2="188.128" gradientUnits="userSpaceOnUse">
<stop stop-color="#058EB2"/>
<stop offset="1" stop-color="#1D2D5F"/>
</linearGradient>
<linearGradient id="paint18_linear_21_92" x1="162.163" y1="139.177" x2="185.206" y2="186.852" gradientUnits="userSpaceOnUse">
<stop stop-color="#058EB2"/>
<stop offset="1" stop-color="#1D2D5F"/>
</linearGradient>
<linearGradient id="paint19_linear_21_92" x1="201.554" y1="137.854" x2="224.602" y2="185.523" gradientUnits="userSpaceOnUse">
<stop stop-color="#058EB2"/>
<stop offset="1" stop-color="#1D2D5F"/>
</linearGradient>
<linearGradient id="paint20_linear_21_92" x1="240.956" y1="136.572" x2="263.914" y2="184.341" gradientUnits="userSpaceOnUse">
<stop stop-color="#058EB2"/>
<stop offset="1" stop-color="#1D2D5F"/>
</linearGradient>
<linearGradient id="paint21_linear_21_92" x1="329.865" y1="401.413" x2="223.982" y2="357.635" gradientUnits="userSpaceOnUse">
<stop stop-color="#FFB6A4"/>
<stop offset="1" stop-color="#FFD1C9"/>
</linearGradient>
<linearGradient id="paint22_linear_21_92" x1="299.646" y1="411.577" x2="314.688" y2="479.096" gradientUnits="userSpaceOnUse">
<stop stop-color="white"/>
<stop offset="1" stop-color="#A5CFF9"/>
</linearGradient>
<linearGradient id="paint23_linear_21_92" x1="354.098" y1="179.095" x2="371.856" y2="485.129" gradientUnits="userSpaceOnUse">
<stop stop-color="white"/>
<stop offset="1" stop-color="#A5CFF9"/>
</linearGradient>
</defs>
</svg>
