<svg width="231" height="217" viewBox="0 0 231 217" fill="none" xmlns="http://www.w3.org/2000/svg">
<path d="M19.7285 213.182C-18.7397 202.911 10.2133 156.644 38.3807 127.255C53.1919 111.803 49.1472 121.58 52.2025 103.452C37.3914 117.448 23.7732 117.303 13.3268 109.795C-28.7205 79.6203 40.2139 -16.1721 62.096 10.5404C63.3181 11.7916 64.3948 15.0507 69.3998 15.5453C95.3557 18.1351 84.6765 21.7724 76.7326 104.616C91.7183 95.8572 102.95 79.4457 112.116 64.6054C119.624 90.2703 122.679 87.7388 108.45 102.259C84.6182 125.916 77.2563 120.649 74.8993 131.852C71.5821 147.42 72.8042 227.412 19.6994 213.212L19.7285 213.182ZM35.3544 159.408C9.68954 201.077 30.9605 195.374 35.6745 190.806C46.0045 180.767 49.118 151.523 50.2529 142.153C45.1897 145.732 40.2139 151.494 35.3544 159.408ZM28.8946 89.6593C32.7065 96.352 41.8143 96.9921 47.8377 82.4428C51.766 72.7821 47.7795 82.7047 60.0882 28.0285C42.4836 28.0285 18.0408 70.5998 28.8946 89.6593V89.6593Z" fill="#1D2D5F"/>
<path d="M220.392 0.181335L209.335 1.6653L188.733 4.4297C188.034 4.51699 187.685 5.33169 188.151 5.91366L193.68 12.6937C192.981 13.2174 192.283 13.7412 191.526 14.265C191.439 14.2941 191.41 14.3522 191.352 14.3813C181.109 21.5105 174.096 10.0457 160.507 9.20181L160.449 9.14364C159.081 9.05635 157.685 8.96906 156.259 8.96906C89.2449 8.96906 91.1363 114.597 140.342 114.597C173.223 114.597 193.301 70.2796 179.741 36.118C188.645 35.2741 195.513 31.7823 201.507 26.7482C202.235 26.1372 202.933 25.4679 203.631 24.7987L205.232 26.7482L209.771 32.3061C210.237 32.888 211.139 32.6843 211.342 32.0442L217.308 13.8285L221.41 1.3743C221.643 0.763228 221.09 0.123078 220.421 0.210374L220.392 0.181335ZM144.532 93.9658C116.714 93.9658 130.594 29.629 150.759 29.629C172.729 29.629 162.69 93.9658 144.532 93.9658Z" fill="#1D2D5F"/>
<path d="M99.3451 156.196H108.645V184.446H117.195V156.196H126.495V149.346H99.3451V156.196ZM149.336 160.746C149.336 163.496 147.836 165.146 144.636 165.146H139.336V156.446H144.636C147.836 156.446 149.336 158.146 149.336 160.746ZM130.786 149.346V184.446H139.336V171.196H141.386L148.686 184.446H158.336L150.236 170.546C155.636 168.946 158.036 164.796 158.036 160.396C158.036 154.296 153.736 149.346 145.136 149.346H130.786ZM163.403 184.446H171.953V149.346H163.403V184.446ZM186.699 165.046V156.246H191.349C194.749 156.246 196.199 157.946 196.199 160.646C196.199 163.346 194.749 165.046 191.349 165.046H186.699ZM204.899 160.646C204.899 154.196 200.599 149.346 191.999 149.346H178.149V184.446H186.699V171.846H191.999C200.949 171.846 204.899 166.446 204.899 160.646Z" fill="#FBBF23"/>
</svg>
