<svg width="146" height="100" viewBox="0 0 146 100" fill="none" xmlns="http://www.w3.org/2000/svg">
<mask id="mask0_418_2151" style="mask-type:alpha" maskUnits="userSpaceOnUse" x="0" y="0" width="146" height="100">
<rect x="0.927734" width="144.2" height="99.2545" fill="#D9D9D9"/>
</mask>
<g mask="url(#mask0_418_2151)">
<path d="M86.0061 13.1941C84.4847 10.6651 82.6819 7.96484 79.8587 7.13905C76.5891 6.18273 73.2304 8.0825 70.3815 9.95717C61.8616 15.5637 53.6568 21.6396 45.8047 28.157L45.8133 28.2552C51.9265 27.8315 58.0397 27.4078 64.1529 26.984C68.5697 26.6779 73.1382 26.3295 77.0414 24.2295C78.5226 23.4326 79.9664 22.3682 81.6447 22.294C83.73 22.2018 85.5481 23.6656 86.977 25.1948C95.429 34.2408 97.8749 48.0743 107.357 56.0218C101.378 41.201 94.2385 26.8802 86.0061 13.1941V13.1941Z" fill="#F2F2F2"/>
<path d="M25.5266 12.0921C25.4272 12.1642 25.3278 12.2363 25.2283 12.3067C24.4962 12.6771 23.7772 13.072 23.0615 13.4702C21.718 14.2175 20.3919 14.9975 19.0833 15.8103C16.4795 17.4277 13.9572 19.1685 11.5165 21.0328C10.2512 21.9996 9.01211 22.9981 7.79908 24.0283C7.71111 23.9317 7.62625 23.8317 7.54314 23.7301C7.52355 23.7055 7.50238 23.6809 7.48446 23.6547C6.55238 22.4859 5.872 21.1352 5.48645 19.6882C5.1009 18.2412 5.01858 16.7296 5.2447 15.2489C5.47083 13.7683 6.00046 12.3511 6.80006 11.0869C7.59965 9.82282 8.65177 8.73941 9.88975 7.90534C11.1277 7.07127 12.5246 6.50474 13.9918 6.24164C15.459 5.97854 16.9646 6.0246 18.4132 6.37691C19.8618 6.72922 21.2217 7.3801 22.407 8.2883C23.5922 9.19651 24.5768 10.3422 25.2984 11.6529C25.3098 11.6726 25.3212 11.6939 25.331 11.7135C25.3995 11.8381 25.4647 11.9643 25.5266 12.0921Z" fill="#FFC90F"/>
<path d="M26.5719 74.4466C30.999 74.568 35.4131 74.9865 39.7847 75.6992C52.9335 77.8491 65.5402 82.5508 76.9016 89.542C80.6801 91.8658 84.3 94.4405 87.7372 97.249C88.1587 97.5938 88.5773 97.9421 88.993 98.2939C89.2601 98.5197 89.6479 98.1337 89.3788 97.9062C85.9664 95.0216 82.3669 92.3682 78.6042 89.9638C74.8455 87.5634 70.9349 85.4123 66.8972 83.5243C62.8539 81.6322 58.6936 80.0037 54.4421 78.649C50.197 77.2964 45.8686 76.2233 41.4845 75.4366C37.1116 74.6507 32.6916 74.1569 28.2537 73.9582C27.6933 73.9334 27.1327 73.9135 26.5719 73.8983C26.2207 73.8886 26.221 74.437 26.5719 74.4466V74.4466Z" fill="#E4E4E4"/>
<path d="M25.5249 57.1151C33.4498 57.6722 41.3777 58.2386 49.2712 59.1546C57.1728 60.0715 65.0466 61.3451 72.7611 63.3132C79.5812 65.0531 86.2624 67.3439 92.6208 70.3847C98.5656 73.2277 104.237 76.6948 109.357 80.8633C114.405 84.9735 118.918 89.7715 122.529 95.2087C122.984 95.8938 123.424 96.5881 123.85 97.2918C124.033 97.5926 124.505 97.3174 124.322 97.0151C120.878 91.4027 116.594 86.3578 111.621 82.0585C106.635 77.71 101.067 74.0578 95.1903 71.0471C89.0423 67.9325 82.6017 65.4392 75.9634 63.604C68.2843 61.4439 60.4188 60.0248 52.5153 59.0036C44.541 57.9733 36.5221 57.3488 28.5046 56.7773C27.5114 56.7065 26.5182 56.6363 25.5249 56.5667C25.1745 56.5421 25.1761 57.0905 25.5249 57.1151H25.5249Z" fill="#E4E4E4"/>
<path d="M138.504 90.8343C137.569 89.648 136.641 88.4563 135.72 87.2592C128.213 77.5007 121.157 67.4127 114.552 56.9951C110.066 49.9198 105.802 42.7087 101.761 35.3617C99.8366 31.8688 97.9653 28.3486 96.1468 24.8009C94.7356 22.0501 93.356 19.2829 92.0078 16.4992C91.6223 15.7041 91.2477 14.9054 90.8749 14.1048C89.9965 12.2222 89.1345 10.3305 88.2089 8.47349C87.1542 6.35694 85.8703 4.13804 83.9335 2.71604C83.0521 2.04234 81.9981 1.6347 80.8947 1.54079C79.3181 1.43843 77.8633 2.09277 76.4957 2.80743C66.4902 8.05128 57.123 14.6257 48.6505 22.1068C40.1562 29.6046 32.5638 38.0753 26.0279 47.3463C25.8279 47.6333 25.3551 47.3591 25.5569 47.0703C26.3516 45.9408 27.1621 44.8234 27.9883 43.7182C38.2617 29.9855 50.8584 18.1761 65.2026 8.8299C67.6159 7.25803 70.0746 5.75987 72.5786 4.33544C73.8406 3.61713 75.1082 2.90796 76.3975 2.24265C77.6614 1.59014 79.0035 1.00343 80.4474 0.981495C85.361 0.904729 87.9052 6.49768 89.6528 10.261C90.202 11.4454 90.7578 12.6262 91.3204 13.8032C93.4462 18.2721 95.6539 22.7002 97.9434 27.0874C99.3564 29.7962 100.8 32.4891 102.275 35.1661C106.865 43.5025 111.744 51.6702 116.911 59.6691C123.756 70.2646 131.082 80.5239 138.889 90.4468C139.104 90.7209 138.72 91.1121 138.504 90.8343Z" fill="#E4E4E4"/>
<path d="M48.1652 19.3452C47.8797 19.0254 47.596 18.7055 47.3087 18.3856C45.0428 15.867 42.6115 13.3776 39.4999 11.9336C38.0163 11.2234 36.3967 10.8461 34.7535 10.8278C33.0551 10.8333 31.3948 11.2811 29.8254 11.9081C29.0834 12.206 28.3578 12.5441 27.6432 12.9042C26.8266 13.3173 26.0246 13.7577 25.2263 14.2019C23.7278 15.0354 22.2488 15.9054 20.7891 16.8119C17.8849 18.6159 15.0716 20.5576 12.3493 22.637C10.9381 23.7154 9.55598 24.8291 8.20301 25.9782C6.9446 27.0456 5.71165 28.1416 4.50415 29.2663C4.24593 29.5057 3.86039 29.1183 4.1186 28.8788C4.43684 28.5809 4.75872 28.2848 5.0806 27.9924C5.98987 27.1662 6.91369 26.3559 7.85208 25.5614C9.56326 24.1102 11.3187 22.715 13.1185 21.3759C15.9173 19.2922 18.8124 17.3499 21.8038 15.549C23.2987 14.6497 24.8141 13.7882 26.3501 12.9645C26.8139 12.7159 27.2831 12.4728 27.7577 12.2425C28.8346 11.6966 29.9536 11.2387 31.1038 10.8735C32.733 10.3438 34.4568 10.1736 36.1575 10.3746C37.7995 10.6146 39.3816 11.1647 40.8202 11.9958C43.8753 13.7121 46.2448 16.366 48.5507 18.9559C48.7836 19.2191 48.3998 19.6084 48.1652 19.3452Z" fill="#E4E4E4"/>
<path d="M110.764 45.4451L118.085 42.7538L121.72 41.4176C122.904 40.9825 124.085 40.4871 125.308 40.1754C126.39 39.8999 127.49 39.8549 128.556 40.217C129.498 40.5672 130.359 41.1039 131.09 41.7954C131.836 42.4863 132.531 43.2318 133.168 44.0258C133.959 44.9816 134.739 45.9475 135.522 46.9102C138.754 50.8833 141.965 54.8736 145.155 58.8811C148.345 62.8886 151.514 66.9131 154.661 70.9547C157.816 75.0061 160.95 79.0744 164.061 83.1597C164.442 83.6602 164.823 84.1609 165.204 84.6619C165.414 84.9386 165.888 84.6658 165.675 84.3851C162.54 80.2587 159.384 76.1492 156.206 72.0566C153.019 67.9543 149.811 63.8693 146.581 59.8017C143.351 55.7342 140.099 51.6843 136.826 47.6521C136.01 46.6476 135.193 45.6441 134.375 44.6418C133.685 43.7963 133.002 42.9417 132.245 42.1547C130.855 40.7102 129.119 39.4336 127.041 39.399C125.819 39.3786 124.637 39.7683 123.501 40.1811C122.277 40.6261 121.056 41.0794 119.834 41.5288L112.462 44.2388L110.619 44.9163C110.292 45.0365 110.433 45.5667 110.764 45.4451V45.4451Z" fill="#E4E4E4"/>
<path d="M27.4943 8.92331L27.0591 9.25399C25.3187 6.9361 22.8689 5.25693 20.0865 4.47461C17.3041 3.69229 14.3431 3.85014 11.6586 4.92388C8.97413 5.99763 6.71486 7.92784 5.22811 10.4178C3.74136 12.9077 3.10943 15.8195 3.42948 18.7055C3.74633 21.6562 5.04943 24.4117 7.12589 26.5218L6.73688 26.9063C4.57438 24.7089 3.21727 21.8392 2.88727 18.7663C2.55396 15.7609 3.21199 12.7287 4.76021 10.1357C6.30842 7.5428 8.66111 5.53272 11.4566 4.41451C14.2521 3.29629 17.3356 3.13185 20.2331 3.94645C23.1306 4.76105 25.6818 6.50961 27.4943 8.92331V8.92331Z" fill="#E4E4E4"/>
<path d="M69.1362 44.0371C68.9796 43.9425 68.8456 43.8146 68.7435 43.6623C68.6415 43.51 68.5739 43.3371 68.5455 43.1557C68.5171 42.9744 68.5287 42.789 68.5793 42.6126C68.63 42.4362 68.7185 42.2731 68.8386 42.1348L67.2148 25.7578L69.9262 25.9386L70.6773 42.0649C70.8951 42.2832 71.0257 42.5742 71.0443 42.8827C71.0629 43.1913 70.9683 43.4959 70.7783 43.739C70.5883 43.9821 70.3162 44.1467 70.0136 44.2017C69.7109 44.2566 69.3987 44.1981 69.1362 44.0371V44.0371Z" fill="#9E616A"/>
<path d="M71.0224 25.1513L70.3115 30.5813L70.4102 33.9093L67.4282 34.1837L66.8305 31.4158L66.5012 24.0879C66.4764 23.5352 66.6609 22.9936 67.0176 22.5722C67.3743 22.1509 67.8767 21.881 68.4235 21.8171V21.8171C68.9908 21.7508 69.5612 21.9114 70.0118 22.2641C70.4623 22.6168 70.7568 23.1335 70.8317 23.7025L71.0224 25.1513Z" fill="#2F2E41"/>
<path d="M59.604 72.929H57.7951L56.9346 65.9163L59.6044 65.9164L59.604 72.929Z" fill="#9E616A"/>
<path d="M60.0641 74.6915L54.2314 74.6913V74.6172C54.2315 74.012 54.4707 73.4317 54.8964 73.0038C55.3222 72.5759 55.8996 72.3355 56.5017 72.3354H56.5018L60.0642 72.3356L60.0641 74.6915Z" fill="#2F2E41"/>
<path d="M74.5397 72.929H72.7308L71.8701 65.9163L74.5399 65.9164L74.5397 72.929Z" fill="#9E616A"/>
<path d="M75.0016 74.6915L69.1689 74.6913V74.6172C69.169 74.012 69.4082 73.4317 69.8339 73.0038C70.2597 72.5759 70.8371 72.3355 71.4392 72.3354H71.4393L75.0018 72.3356L75.0016 74.6915Z" fill="#2F2E41"/>
<path d="M67.5059 19.2357C69.6719 19.2357 71.4278 17.4709 71.4278 15.2939C71.4278 13.1169 69.6719 11.3521 67.5059 11.3521C65.3399 11.3521 63.584 13.1169 63.584 15.2939C63.584 17.4709 65.3399 19.2357 67.5059 19.2357Z" fill="#9E616A"/>
<path d="M66.9982 20.8359L69.7199 21.1486C70.3818 22.0919 70.8109 23.18 70.9719 24.3229C71.133 25.4658 71.0212 26.6308 70.646 27.7218L68.5924 33.6929C68.5924 33.6929 71.4432 39.4371 71.4432 44.7703C71.4432 50.1034 76.8724 69.1402 76.8724 69.1402L69.2302 69.9414L65.8957 49.6619L61.3005 69.8597L56.0547 69.0013L58.944 42.5199L60.8532 33.8036L60.9345 29.553C60.9345 29.553 60.1227 26.3635 62.1545 24.3214L64.6351 20.8473L66.9982 20.8359Z" fill="#071447"/>
<path d="M62.9326 13.8861H68.6957V11.3612C67.4308 10.8562 66.193 10.4266 65.4447 11.3612C64.7785 11.3612 64.1395 11.6273 63.6684 12.1008C63.1973 12.5743 62.9326 13.2165 62.9326 13.8861V13.8861Z" fill="#2F2E41"/>
<path d="M69.016 10.9158C72.4613 10.9158 73.4256 15.2562 73.4256 17.7049C73.4256 19.0705 72.8112 19.5589 71.8456 19.7242L71.5046 17.8963L70.7059 19.8029C70.4347 19.8042 70.1498 19.7989 69.8544 19.7934L69.5836 19.233L68.9797 19.7834C66.5612 19.787 64.6064 20.1413 64.6064 17.7049C64.6064 15.2562 65.4522 10.9158 69.016 10.9158Z" fill="#2F2E41"/>
<path opacity="0.2" d="M63.921 34.8901L63.7753 28.5318L63.3889 25.7092L62.4336 28.5053L63.921 34.8901Z" fill="black"/>
<path d="M71.1687 34.0421H66.8379V21.2478H71.1687C71.9973 21.2487 72.7916 21.58 73.3775 22.1688C73.9634 22.7577 74.2929 23.5561 74.2939 24.3888V30.9011C74.2929 31.7339 73.9634 32.5323 73.3775 33.1211C72.7916 33.71 71.9973 34.0412 71.1687 34.0421V34.0421Z" fill="#FD5B1F"/>
<path d="M70.567 27.188C70.4224 27.1878 70.2837 27.13 70.1814 27.0272C70.0792 26.9244 70.0216 26.785 70.0215 26.6396V21.8875H71.1126V26.6396C71.1124 26.785 71.0549 26.9244 70.9526 27.0272C70.8504 27.13 70.7117 27.1878 70.567 27.188Z" fill="#071447"/>
<path d="M71.8781 33.0368H68.7093C68.5266 33.0366 68.3516 32.9636 68.2225 32.8338C68.0933 32.704 68.0207 32.528 68.0205 32.3445V30.4391C68.0207 30.2556 68.0933 30.0796 68.2225 29.9498C68.3516 29.8201 68.5266 29.747 68.7093 29.7468H71.8781C72.0607 29.747 72.2358 29.8201 72.3649 29.9498C72.494 30.0796 72.5666 30.2556 72.5668 30.4391V32.3445C72.5666 32.528 72.494 32.704 72.3649 32.8338C72.2358 32.9636 72.0607 33.0366 71.8781 33.0368V33.0368Z" fill="#071447"/>
<path d="M62.8561 29.145C62.0359 28.1724 61.5654 26.7595 61.5654 25.2689C61.5654 22.4469 63.2378 20.1511 65.2934 20.1511C66.397 20.1511 67.4367 20.8141 68.146 21.9699L67.8364 22.1618C67.1949 21.1163 66.268 20.5167 65.2934 20.5167C63.4383 20.5167 61.9291 22.6485 61.9291 25.2689C61.9291 26.6744 62.3681 28.001 63.1335 28.9087L62.8561 29.145Z" fill="#FD5B1F"/>
<path d="M64.6234 44.6988C64.4577 44.586 64.3186 44.438 64.216 44.2653C64.1133 44.0926 64.0496 43.8994 64.0293 43.6993C64.009 43.4992 64.0326 43.297 64.0984 43.107C64.1643 42.9171 64.2707 42.7439 64.4104 42.5998L63.6025 24.5854L66.5582 24.9453L66.4261 42.6333C66.6515 42.8851 66.7771 43.2112 66.7792 43.5499C66.7814 43.8885 66.6598 44.2162 66.4376 44.4708C66.2154 44.7254 65.9079 44.8893 65.5736 44.9313C65.2392 44.9733 64.9011 44.8906 64.6234 44.6988V44.6988Z" fill="#9E616A"/>
<path d="M67.8053 24.1493L66.7064 30.0477L66.6176 33.6946L63.3388 33.8166L62.8486 30.7527L62.9218 22.7159C62.9273 22.1097 63.1613 21.5282 63.5764 21.0885C63.9916 20.6488 64.5572 20.3836 65.1592 20.3463C65.7838 20.3077 66.3984 20.5174 66.8704 20.9303C67.3425 21.3431 67.6341 21.9259 67.6824 22.553L67.8053 24.1493Z" fill="#1668FF"/>
<path d="M74.9472 79.9999C75.1908 79.337 73.8608 78.2327 71.9765 77.5332C70.0922 76.8337 68.3673 76.804 68.1237 77.4668C67.8801 78.1297 69.2101 79.234 71.0944 79.9335C72.9787 80.633 74.7036 80.6627 74.9472 79.9999Z" fill="#E6E6E6"/>
<path d="M86.687 80.5607C87.0386 79.9487 85.9133 78.6343 84.1737 77.6249C82.4342 76.6155 80.739 76.2932 80.3875 76.9052C80.0359 77.5171 81.1612 78.8315 82.9008 79.8409C84.6403 80.8504 86.3355 81.1726 86.687 80.5607Z" fill="#E6E6E6"/>
<path d="M92.404 88.4578C92.7276 87.8305 91.5443 86.5686 89.7611 85.6393C87.9779 84.71 86.2699 84.4651 85.9463 85.0924C85.6227 85.7197 86.8059 86.9816 88.5892 87.9109C90.3724 88.8403 92.0804 89.0851 92.404 88.4578Z" fill="#E6E6E6"/>
<path d="M104.043 91.1997C104.366 90.5724 103.183 89.3105 101.4 88.3812C99.6165 87.4519 97.9086 87.2071 97.585 87.8344C97.2614 88.4617 98.4446 89.7236 100.228 90.6529C102.011 91.5822 103.719 91.827 104.043 91.1997Z" fill="#E6E6E6"/>
<path d="M38.538 15.1027C34.8178 13.181 30.0534 13.5574 26.6348 15.9583C33.1556 17.089 39.6051 18.6019 45.9503 20.4893C43.3154 18.9374 41.2543 16.5058 38.538 15.1027Z" fill="#F2F2F2"/>
<path d="M26.5971 15.9517L25.8809 16.5368C26.1231 16.332 26.375 16.14 26.6337 15.9583C26.6215 15.9562 26.6093 15.9538 26.5971 15.9517Z" fill="#F2F2F2"/>
</g>
</svg>
