<svg width="142" height="100" viewBox="0 0 142 100" fill="none" xmlns="http://www.w3.org/2000/svg">
<mask id="mask0_418_2150" style="mask-type:alpha" maskUnits="userSpaceOnUse" x="0" y="0" width="142" height="100">
<rect x="0.873047" y="0.745361" width="140.455" height="99.2545" fill="#D9D9D9"/>
</mask>
<g mask="url(#mask0_418_2150)">
<path d="M22.2289 92.9848L22.1095 92.9404C18.0645 91.4147 14.8954 88.1869 13.4441 84.1146C13.0508 82.9828 12.8017 81.806 12.7025 80.612L12.6927 80.498L12.8053 80.5182C14.1486 80.7593 15.5588 80.8925 16.1872 80.9446L12.6621 78.6121L12.6685 78.4909C12.7234 77.3521 13.4656 76.3613 14.543 75.9886C15.6307 75.5869 16.8533 75.8874 17.6309 76.7474C17.9814 77.1277 18.3519 77.5106 18.7101 77.881C19.9413 79.1534 21.2144 80.4692 22.0195 82.0225C23.2301 84.4158 23.2959 87.2277 22.1983 89.675L22.2289 92.9848H22.2289Z" fill="#F2F2F2"/>
<path d="M93.5529 90.7245L93.5515 90.7119C93.3957 87.2522 92.7609 83.8308 91.6652 80.5455L91.6642 80.5401C91.6003 80.2027 91.6188 79.8548 91.7183 79.5261C92.0243 78.584 92.9732 78.0073 93.9504 78.1696C94.9598 78.3592 96.0037 78.181 96.8929 77.6671C97.4577 77.3395 98.143 77.2942 98.746 77.5445C99.3146 77.7763 99.74 78.2635 99.8929 78.8582C99.9048 78.9049 99.9153 78.9522 99.9242 79.0002C99.9563 82.4762 100.595 85.9199 101.811 89.1764L101.812 89.1806C101.939 89.853 101.736 90.5457 101.266 91.0431C100.85 91.4648 100.268 91.6787 99.6786 91.6263C98.6201 91.5542 97.5315 91.7688 96.3505 92.283C95.938 92.4665 95.4742 92.4991 95.0401 92.375C94.2724 92.15 93.697 91.5115 93.5529 90.7245V90.7245Z" fill="#FFC90F"/>
<path d="M59.7178 43.1993V88.6316H91.5461V43.1993C91.5472 42.5285 91.1105 41.9355 90.4696 41.7374C90.3225 41.6889 90.1683 41.6649 90.0134 41.6666H61.2549C60.4076 41.6649 59.7194 42.3505 59.7178 43.1978V43.1993V43.1993ZM72.139 58.81C72.1563 56.9335 73.6915 55.4263 75.568 55.4436C77.4201 55.4606 78.9173 56.9579 78.9344 58.81V64.0815C78.9255 65.958 77.3971 67.472 75.5206 67.4631C73.6567 67.4543 72.1478 65.9455 72.139 64.0815V58.81V58.81Z" fill="#F2F2F2"/>
<path d="M59.6191 87.1785V91.5596C59.6206 92.0318 60.0018 92.415 60.4741 92.419H90.7874C91.2603 92.4166 91.6425 92.0325 91.6424 91.5596V87.1785H59.6191V87.1785Z" fill="#E6E6E6"/>
<path d="M76.4292 48.0292L76.4165 48.0283C72.9864 47.5504 69.5067 47.5504 66.0766 48.0283H66.0711C65.7277 48.0296 65.389 47.9479 65.084 47.7902C64.2135 47.3174 63.8196 46.2792 64.1574 45.3481C64.528 44.3902 64.5432 43.3313 64.2002 42.3632C63.9811 41.7482 64.0615 41.0661 64.4177 40.5189C64.7493 40.0021 65.3059 39.6727 65.9185 39.6309C65.9667 39.6277 66.015 39.626 66.0639 39.626C69.4874 40.2286 72.9898 40.229 76.4135 39.6273H76.4178C77.1021 39.6249 77.7462 39.9509 78.1495 40.5038C78.4883 40.9892 78.5924 41.6006 78.4333 42.1708C78.1693 43.1984 78.1818 44.3079 78.4718 45.5629C78.5771 46.0019 78.5245 46.464 78.3232 46.8681C77.962 47.5819 77.2292 48.0311 76.4292 48.0292V48.0292Z" fill="#FFC90F"/>
<path d="M86.9792 30.118L84.2197 27.8345C82.1504 28.9191 79.0016 33.2494 79.0016 33.2494L71.7376 38.4738C70.8652 38.5153 70.1917 39.2562 70.2333 40.1285C70.2748 41.0009 71.0157 41.6744 71.8881 41.6329C72.4542 41.6059 72.9626 41.278 73.2207 40.7734L83.0904 35.558L86.9792 30.118V30.118Z" fill="#FFB8B8"/>
<path d="M91.6351 21.4269C93.2278 22.7758 93.4255 25.1604 92.0767 26.753C91.9255 26.9315 91.7581 27.0956 91.5766 27.2431L89.8218 28.6696C89.8218 28.6696 85.4447 34.9709 83.1663 35.7019L77.3171 38.7577L74.6797 36.1133L79.9808 31.7931C79.9808 31.7931 82.419 29.4869 82.6632 27.7987C82.8127 26.7648 84.5625 23.9485 86.3164 21.8596C87.6625 20.2717 90.0411 20.0756 91.629 21.4218L91.6351 21.4269V21.4269Z" fill="#3179FF"/>
<path d="M85.9622 89.8142L83.4692 89.814L82.2832 80.1978L85.9627 80.1979L85.9622 89.8142Z" fill="#FFB6B6"/>
<path d="M86.0512 92.4143L78.3848 92.414V92.3171C78.3849 90.6691 79.7208 89.3332 81.3688 89.3331H81.3689L82.7693 88.2708L85.3821 89.3333L86.0513 89.3333L86.0512 92.4143V92.4143Z" fill="#2F2E41"/>
<path d="M104.959 76.6922L103.778 78.8878L94.7471 75.3789L96.4896 72.1382L104.959 76.6922Z" fill="#FFB6B6"/>
<path d="M107.291 77.846L103.661 84.5983L103.575 84.5524C102.124 83.772 101.58 81.9627 102.36 80.5112L102.36 80.511L102.088 78.7745L104.261 76.9764L104.578 76.387L107.291 77.846V77.846Z" fill="#2F2E41"/>
<path d="M81.2492 45.7769L79.0488 63.3797L80.149 69.2813L99.9522 77.9571L101.052 74.3815C95.9905 71.2841 90.5793 66.5963 87.1697 66.2517C87.1697 66.2517 86.8869 63.1278 89.3295 61.1999C89.8223 60.811 89.7145 60.2848 89.9138 59.8078C90.0509 59.4797 90.5961 59.1381 90.7357 58.8015C90.9167 58.3655 90.6927 57.9321 90.8747 57.4889C90.977 57.2398 91.3648 57.2241 91.4664 56.9747C91.6399 56.5494 91.5263 55.8907 91.6953 55.4704C92.0564 54.5724 92.4035 53.6942 92.7205 52.871C93.7072 50.3084 94.4015 48.2782 94.3138 47.8397C94.0388 46.4645 81.2492 45.7769 81.2492 45.7769V45.7769Z" fill="#071447"/>
<path d="M80.8708 63.3291L79.7197 70.7629L82.6251 85.9337H86.4757C87.8591 80.8362 87.9304 74.1366 86.6132 68.4683L80.8708 63.3291V63.3291Z" fill="#071447"/>
<path d="M83.3451 24.2698L85.1202 21.1767L87.0261 19.6477L90.6017 19.0977L91.5951 19.8615C95.1701 25.3255 96.5033 31.9565 95.3177 38.3775L95.0387 39.889L94.8615 40.8484L94.9383 41.9952L94.3416 43.6647L94.4237 44.8873L94.4675 45.5402L94.5115 46.1955L94.5729 47.1102C94.6828 47.6323 94.1293 47.5634 94.2075 48.0236C94.345 48.8317 94.9617 50.0292 94.0249 50.0331L84.3429 48.0236C81.8832 48.0337 79.5932 45.1007 81.968 42.7259L83.3451 24.2698H83.3451Z" fill="#1668FF"/>
<path d="M87.8773 18.2361C90.4739 18.2361 92.5788 16.1311 92.5788 13.5345C92.5788 10.938 90.4739 8.83301 87.8773 8.83301C85.2807 8.83301 83.1758 10.938 83.1758 13.5345C83.1758 16.1311 85.2807 18.2361 87.8773 18.2361Z" fill="#FFB8B8"/>
<path d="M87.9566 18.1025C88.6445 18.1132 89.3321 18.0652 90.0119 17.9589C90.6856 17.8218 92.1929 16.7173 92.6131 16.0526C92.9253 15.5588 93.1249 14.7876 93.2374 14.2277C93.5438 12.7292 93.2006 11.1711 92.2928 9.94016C92.1203 9.68556 91.8822 9.48233 91.6036 9.35195C91.5789 9.34229 91.5535 9.33374 91.5279 9.32642C91.122 9.21963 90.7573 8.99397 90.4806 8.6784C90.427 8.61457 90.3688 8.55469 90.3065 8.49923C89.9938 8.23532 89.623 8.04915 89.2246 7.95597C88.5814 7.78384 87.6507 7.9547 86.4582 8.4643C85.8591 8.72033 85.2038 8.62767 84.6998 8.51834C84.6423 8.50723 84.5832 8.52748 84.5445 8.57154C84.3301 8.77287 84.0474 8.88556 83.7532 8.88697C83.5731 8.89488 83.384 9.14434 83.1556 9.46963C83.1037 9.54347 83.0432 9.62966 82.9996 9.68208L82.9938 9.58137L82.8919 9.69372C82.3676 10.2716 82.411 11.1651 82.9889 11.6894C83.1442 11.8303 83.329 11.9348 83.5297 11.9955C83.7109 12.0437 83.8966 12.0733 84.0838 12.0838C84.1973 12.094 84.3146 12.1045 84.427 12.124C85.161 12.2744 85.7621 12.7992 86.0099 13.5063C86.1137 13.7959 86.4326 13.9465 86.7222 13.8427C86.7677 13.8264 86.8109 13.8042 86.8507 13.7768C87.0884 13.5916 87.4016 13.5346 87.6893 13.624C87.8118 13.6921 87.9071 13.8003 87.9594 13.9304C88.0228 14.0753 88.128 14.198 88.2615 14.2829C88.7181 14.5183 88.7495 15.5611 88.5856 16.4304C88.4275 17.2684 88.115 17.8746 87.8257 17.9046C87.603 17.9276 87.5776 17.9434 87.5614 17.9828L87.547 18.0181L87.572 18.0511C87.695 18.0957 87.8262 18.1132 87.9566 18.1025V18.1025Z" fill="#2F2E41"/>
<path d="M78.4389 15.3297L78.4263 15.3289C74.9962 14.8509 71.5164 14.8509 68.0864 15.3289H68.0808C67.7374 15.3302 67.3988 15.2485 67.0938 15.0907C66.2233 14.618 65.8294 13.5798 66.1672 12.6486C66.5378 11.6908 66.553 10.6318 66.21 9.66376C65.9909 9.0487 66.0713 8.36663 66.4274 7.81939C66.759 7.3026 67.3157 6.97327 67.9283 6.93142C67.9765 6.92821 68.0248 6.92651 68.0737 6.92651C71.4972 7.52909 74.9996 7.52955 78.4232 6.92785H78.4275C79.1119 6.92545 79.7559 7.2514 80.1592 7.80432C80.498 8.28973 80.6021 8.90117 80.4431 9.47135C80.179 10.4989 80.1915 11.6085 80.4816 12.8634C80.5868 13.3024 80.5342 13.7645 80.333 14.1686C79.9717 14.8824 79.239 15.3316 78.4389 15.3297V15.3297Z" fill="#FFC90F"/>
<path d="M82.8364 26.4032L84.7818 23.3958C83.4628 21.4674 78.7942 18.8462 78.7942 18.8462L72.7568 12.2425C72.6136 11.3809 71.7991 10.7986 70.9375 10.9418C70.076 11.085 69.4937 11.8995 69.6369 12.7611C69.7298 13.3202 70.1149 13.7868 70.6461 13.9841L76.9793 23.1767L82.8364 26.4032H82.8364Z" fill="#FFB8B8"/>
<path d="M92.0125 30.011C90.859 31.7504 88.5138 32.2254 86.7744 31.0719C86.5795 30.9426 86.397 30.7956 86.2293 30.6326L84.6075 29.0565C84.6075 29.0565 77.8091 25.5067 76.8168 23.3293L72.3623 17.0111L75.3491 14.3167L80.5405 19.036C80.5405 19.036 82.9308 21.7999 84.6359 21.8451C85.6802 21.8728 88.6817 23.2815 90.9612 24.7792C92.6956 25.9306 93.1682 28.2699 92.0169 30.0043L92.0125 30.011V30.011Z" fill="#3179FF"/>
<path d="M46.7241 92.3871L46.7114 92.3862C43.2814 91.9083 39.8016 91.9083 36.3715 92.3862H36.366C36.0226 92.3875 35.6839 92.3058 35.3789 92.1481C34.5085 91.6753 34.1146 90.6372 34.4523 89.706C34.8229 88.7481 34.8381 87.6892 34.4951 86.7211C34.276 86.1061 34.3565 85.424 34.7126 84.8768C35.0442 84.36 35.6008 84.0306 36.2135 83.9888C36.2616 83.9856 36.31 83.9839 36.3588 83.9839C39.7823 84.5865 43.2847 84.5869 46.7084 83.9852H46.7127C47.3971 83.9828 48.0411 84.3088 48.4444 84.8617C48.7832 85.3471 48.8873 85.9585 48.7282 86.5287C48.4642 87.5563 48.4767 88.6658 48.7668 89.9208C48.872 90.3598 48.8194 90.8219 48.6181 91.226C48.2569 91.9398 47.5241 92.389 46.7241 92.3871H46.7241Z" fill="#FFC90F"/>
<path d="M49.646 84.7148L49.6333 84.7139C46.2032 84.2359 42.7235 84.2359 39.2934 84.7139H39.2879C38.9444 84.7152 38.6058 84.6335 38.3008 84.4757C37.4303 84.003 37.0364 82.9648 37.3742 82.0336C37.7448 81.0758 37.76 80.0169 37.417 79.0488C37.1979 78.4337 37.2783 77.7516 37.6345 77.2044C37.9661 76.6876 38.5227 76.3583 39.1353 76.3164C39.1835 76.3132 39.2318 76.3115 39.2807 76.3115C42.7042 76.9141 46.2066 76.9146 49.6303 76.3129H49.6346C50.3189 76.3105 50.963 76.6364 51.3663 77.1893C51.7051 77.6747 51.8092 78.2862 51.6501 78.8564C51.3861 79.8839 51.3985 80.9935 51.6886 82.2484C51.7939 82.6875 51.7413 83.1495 51.54 83.5537C51.1788 84.2675 50.446 84.7167 49.646 84.7148H49.646Z" fill="#FFC90F"/>
<path d="M24.0705 86.8064L24.0783 86.7964C26.3961 84.2231 28.3459 81.3409 29.872 78.2321L29.8751 78.2275C30.0664 77.9423 30.3239 77.7076 30.6255 77.5434C31.5047 77.0873 32.5854 77.3428 33.1674 78.1443C33.7531 78.9879 34.6216 79.5939 35.6157 79.8522C36.2479 80.0154 36.7677 80.4642 37.0214 81.0658C37.2637 81.63 37.2246 82.2756 36.916 82.8064C36.8916 82.8481 36.8659 82.8891 36.8386 82.9296C34.4212 85.4276 32.4584 88.3283 31.0384 91.5011L31.036 91.5047C30.6545 92.0729 30.0237 92.4237 29.3397 92.4479C28.7478 92.4566 28.183 92.2002 27.7999 91.7489C27.0967 90.9545 26.1707 90.3431 24.9688 89.8802C24.5462 89.7214 24.1929 89.4189 23.9709 89.0258C23.5821 88.3266 23.6207 87.4679 24.0705 86.8064V86.8064Z" fill="#FFC90F"/>
<path d="M143.489 92.666L6.70759 92.7221C6.58746 92.7215 6.49059 92.6236 6.49121 92.5035C6.49184 92.3842 6.58835 92.2877 6.70759 92.2871L143.489 92.231C143.609 92.2316 143.706 92.3295 143.705 92.4496C143.704 92.5688 143.608 92.6654 143.489 92.666Z" fill="#CACACA"/>
</g>
</svg>
