<svg width="259" height="282" viewBox="0 0 259 282" fill="none" xmlns="http://www.w3.org/2000/svg">
<path fill-rule="evenodd" clip-rule="evenodd" d="M258.791 165.091C258.791 93.6276 200.859 35.6953 129.395 35.6953C57.9323 35.6953 0 93.6276 0 165.091H258.791Z" fill="#ED9111"/>
<path d="M131.587 58.0049C89.5916 58.0049 53.2421 82.1791 35.6953 117.371" stroke="white" stroke-width="8.92383" stroke-linecap="round"/>
<path fill-rule="evenodd" clip-rule="evenodd" d="M0 169.553H258.791V182.938H0V169.553Z" fill="#FCC24C"/>
<path d="M129.396 26.7715C136.788 26.7715 142.781 20.7785 142.781 13.3857C142.781 5.993 136.788 0 129.396 0C122.003 0 116.01 5.993 116.01 13.3857C116.01 20.7785 122.003 26.7715 129.396 26.7715Z" fill="#FCC24C"/>
<path fill-rule="evenodd" clip-rule="evenodd" d="M49.7602 209.39C44.4796 212.563 42.7717 219.418 45.9589 224.722L70.0734 264.855L89.1965 253.365L65.0819 213.232C61.9007 207.937 55.0777 206.195 49.7602 209.39V209.39Z" fill="#FCC24C"/>
<path fill-rule="evenodd" clip-rule="evenodd" d="M205.249 221.969L154.953 221.858C154.953 221.858 90.5651 187.072 80.9697 198.704C71.3742 210.337 106.613 226.961 106.613 226.961L92.57 235.607L46.3789 236.425L23.4471 224.59C19.0544 222.323 13.5618 224.017 11.2233 228.293L8.95935 232.432C6.60109 236.744 8.2362 242.106 12.6198 244.413L43.8781 260.862L95.8747 267.583C95.8747 267.583 115.793 280.228 203.267 263.559" fill="#FFDD95"/>
<path fill-rule="evenodd" clip-rule="evenodd" d="M200.786 205.248V281.1H236.481V205.248H200.786Z" fill="#D8D8D8"/>
</svg>
