<svg width="518" height="418" viewBox="0 0 518 418" fill="none" xmlns="http://www.w3.org/2000/svg">
<path d="M129.326 179.902C164.759 179.902 193.484 151.178 193.484 115.744C193.484 80.3114 164.759 51.5872 129.326 51.5872C93.8932 51.5872 65.1689 80.3114 65.1689 115.744C65.1689 151.178 93.8932 179.902 129.326 179.902Z" fill="#FFC90F"/>
<path d="M330.517 313.454H15.7806C15.3866 313.459 14.9929 313.428 14.6045 313.361L163.46 55.521C164.369 53.9152 165.687 52.5794 167.281 51.6499C168.875 50.7204 170.687 50.2307 172.532 50.2307C174.377 50.2307 176.189 50.7204 177.782 51.6499C179.376 52.5794 180.695 53.9152 181.603 55.521L281.504 228.552L286.29 236.831L330.517 313.454Z" fill="#B6B9BE"/>
<path opacity="0.2" d="M330.516 313.453H223.059L275.809 236.831L279.607 231.312L281.505 228.551L286.29 236.831L330.516 313.453Z" fill="black"/>
<path d="M505.76 313.454H233.539L286.29 236.831L290.086 231.311L358.826 131.456C363.332 124.912 374.174 124.505 379.472 130.222C379.828 130.612 380.159 131.024 380.462 131.456L505.76 313.454Z" fill="#B6B9BE"/>
<path d="M516.696 14.1642C515.198 10.0203 512.459 6.43786 508.851 3.90368C505.244 1.3695 500.943 0.00653166 496.532 1.60976e-06H21.4239C18.6102 -0.0010888 15.8239 0.551793 13.2241 1.62704C10.6243 2.70229 8.26213 4.27881 6.27251 6.26654C4.28289 8.25427 2.70486 10.6142 1.62859 13.2115C0.552318 15.8088 -0.00108984 18.5925 1.6113e-06 21.4036V396.596C0.00803849 402.271 2.26778 407.71 6.28381 411.722C10.2999 415.734 15.7444 417.992 21.4239 418H496.532C502.212 417.992 507.657 415.734 511.673 411.722C515.689 407.71 517.948 402.271 517.956 396.596V21.4036C517.961 18.9356 517.534 16.4858 516.696 14.1642V14.1642ZM515.436 396.596C515.43 401.603 513.436 406.403 509.893 409.944C506.349 413.484 501.544 415.476 496.532 415.482H21.4239C16.4123 415.476 11.6077 413.484 8.06391 409.944C4.52013 406.403 2.52657 401.603 2.52048 396.596V21.4036C2.52657 16.3967 4.52013 11.5967 8.06391 8.05625C11.6077 4.51585 16.4123 2.52417 21.4239 2.51808H496.532C501.544 2.52417 506.349 4.51585 509.893 8.05625C513.436 11.5967 515.43 16.3967 515.436 21.4036V396.596Z" fill="#F9F9F9"/>
</svg>
