<svg width="930" height="873" viewBox="0 0 930 873" fill="none" xmlns="http://www.w3.org/2000/svg">
<path d="M80.1973 865.858C-76.1777 824.103 41.5176 636.027 156.019 516.558C216.227 453.747 199.785 493.492 212.205 419.799C151.997 476.695 96.6391 476.104 54.1741 445.586C-116.75 322.922 163.471 -66.4774 252.423 42.1098C257.391 47.1961 261.768 60.4443 282.113 62.4551C387.625 72.9827 344.213 87.7683 311.921 424.531C372.839 388.926 418.497 322.213 455.758 261.886C486.276 366.215 498.696 355.924 440.853 414.949C343.977 511.117 314.05 489.707 304.469 535.247C290.984 598.531 295.952 923.701 80.0789 865.977L80.1973 865.858ZM143.717 647.264C39.3884 816.651 125.856 793.467 145.018 774.896C187.01 734.087 199.667 615.209 204.28 577.12C183.698 591.67 163.471 615.09 143.717 647.264ZM117.458 363.731C132.953 390.937 169.977 393.54 194.462 334.396C210.431 295.125 194.226 335.461 244.261 113.2C172.697 113.2 73.3367 286.254 117.458 363.731Z" fill="#041C7A"/>
<path d="M895.902 0L850.953 6.03238L767.206 17.2698C764.367 17.6246 762.948 20.9364 764.841 23.3021L787.315 50.8631C784.476 52.9923 781.637 55.1216 778.562 57.2507C778.207 57.369 778.089 57.6053 777.852 57.7236C736.215 86.7039 707.708 40.0989 652.468 36.6686L652.232 36.4321C646.672 36.0773 640.994 35.7225 635.198 35.7225C362.784 35.7225 370.473 465.103 570.495 465.103C704.159 465.103 785.777 284.952 730.656 146.084C766.851 142.653 794.767 128.459 819.134 107.995C822.091 105.511 824.93 102.791 827.769 100.07L834.275 107.995L852.728 130.588C854.62 132.954 858.287 132.126 859.115 129.524L883.364 55.4761L900.042 4.84944C900.989 2.36542 898.741 -0.236819 896.021 0.118041L895.902 0ZM587.529 381.238C474.447 381.238 530.87 119.706 612.842 119.706C702.149 119.706 661.34 381.238 587.529 381.238Z" fill="#041C7A"/>
<path d="M505.688 610.672V646.84H456.584V796H411.44V646.84H362.336V610.672H505.688ZM622.857 796L584.313 726.04H573.489V796H528.345V610.672H604.113C618.721 610.672 631.129 613.224 641.337 618.328C651.721 623.432 659.465 630.472 664.569 639.448C669.673 648.248 672.225 658.104 672.225 669.016C672.225 681.336 668.705 692.336 661.665 702.016C654.801 711.696 644.593 718.56 631.041 722.608L673.809 796H622.857ZM573.489 694.096H601.473C609.745 694.096 615.905 692.072 619.953 688.024C624.177 683.976 626.289 678.256 626.289 670.864C626.289 663.824 624.177 658.28 619.953 654.232C615.905 650.184 609.745 648.16 601.473 648.16H573.489V694.096ZM745.707 610.672V796H700.563V610.672H745.707ZM919.663 670.336C919.663 681.072 917.199 690.928 912.271 699.904C907.343 708.704 899.775 715.832 889.567 721.288C879.359 726.744 866.687 729.472 851.551 729.472H823.567V796H778.423V610.672H851.551C866.335 610.672 878.831 613.224 889.039 618.328C899.247 623.432 906.903 630.472 912.007 639.448C917.111 648.424 919.663 658.72 919.663 670.336ZM848.119 693.568C856.743 693.568 863.167 691.544 867.391 687.496C871.615 683.448 873.727 677.728 873.727 670.336C873.727 662.944 871.615 657.224 867.391 653.176C863.167 649.128 856.743 647.104 848.119 647.104H823.567V693.568H848.119Z" fill="#FCD240"/>
</svg>
