<svg width="100" height="100" viewBox="0 0 100 100" fill="none" xmlns="http://www.w3.org/2000/svg">
<rect width="100" height="100" rx="6" fill="white"/>
<path d="M29.9245 71.371C22.2722 69.3277 28.0317 60.1242 33.6348 54.2779C36.5811 51.2043 35.7765 53.1492 36.3843 49.543C33.438 52.3272 30.7291 52.2983 28.651 50.8049C20.2868 44.8023 33.9995 25.7469 38.3524 31.0607C38.5955 31.3096 38.8097 31.9579 39.8053 32.0563C44.9685 32.5714 42.8442 33.295 41.2639 49.7745C44.245 48.0322 46.4793 44.7676 48.3026 41.8155C49.796 46.9208 50.4038 46.4173 47.5733 49.3057C42.8326 54.0116 41.3681 52.9639 40.8993 55.1925C40.2394 58.2893 40.4825 74.2016 29.9187 71.3768L29.9245 71.371ZM33.0328 60.6741C27.9275 68.963 32.1588 67.8285 33.0965 66.9197C35.1514 64.9228 35.7708 59.1054 35.9965 57.2416C34.9893 57.9535 33.9995 59.0996 33.0328 60.6741ZM31.7478 46.7993C32.5061 48.1306 34.3179 48.258 35.5161 45.3638C36.2975 43.442 35.5045 45.4159 37.953 34.5395C34.451 34.5395 29.5888 43.0079 31.7478 46.7993Z" fill="#041C7A"/>
<path d="M69.8411 29L67.6415 29.2952L63.5433 29.8451C63.4044 29.8625 63.3349 30.0245 63.4275 30.1403L64.5273 31.489C64.3884 31.5932 64.2495 31.6974 64.099 31.8016C64.0816 31.8074 64.0758 31.8189 64.0643 31.8247C62.0267 33.2429 60.6318 30.9623 57.9286 30.7944L57.917 30.7828C57.6449 30.7655 57.3671 30.7481 57.0835 30.7481C43.7528 30.7481 44.129 51.76 53.9172 51.76C60.4581 51.76 64.4521 42.9442 61.7547 36.1487C63.5259 35.9808 64.892 35.2862 66.0844 34.2848C66.2291 34.1632 66.368 34.0301 66.507 33.897L66.8253 34.2848L67.7283 35.3904C67.8209 35.5061 68.0004 35.4656 68.0409 35.3383L69.2275 31.7147L70.0437 29.2373C70.09 29.1158 69.98 28.9884 69.8469 29.0058L69.8411 29ZM54.7507 47.656C49.217 47.656 51.9781 34.8579 55.9895 34.8579C60.3597 34.8579 58.3627 47.656 54.7507 47.656Z" fill="#041C7A"/>
<path d="M53.691 59.2372V60.8812H51.459V67.6612H49.407V60.8812H47.175V59.2372H53.691ZM59.0168 67.6612L57.2648 64.4812H56.7728V67.6612H54.7208V59.2372H58.1648C58.8288 59.2372 59.3928 59.3532 59.8568 59.5852C60.3288 59.8172 60.6808 60.1372 60.9128 60.5452C61.1448 60.9452 61.2608 61.3932 61.2608 61.8892C61.2608 62.4492 61.1008 62.9492 60.7808 63.3892C60.4688 63.8292 60.0048 64.1412 59.3888 64.3252L61.3328 67.6612H59.0168ZM56.7728 63.0292H58.0448C58.4208 63.0292 58.7008 62.9372 58.8848 62.7532C59.0768 62.5692 59.1728 62.3092 59.1728 61.9732C59.1728 61.6532 59.0768 61.4012 58.8848 61.2172C58.7008 61.0332 58.4208 60.9412 58.0448 60.9412H56.7728V63.0292ZM64.6009 59.2372V67.6612H62.5489V59.2372H64.6009ZM72.508 61.9492C72.508 62.4372 72.396 62.8852 72.172 63.2932C71.948 63.6932 71.604 64.0172 71.14 64.2652C70.676 64.5132 70.1 64.6372 69.412 64.6372H68.14V67.6612H66.088V59.2372H69.412C70.084 59.2372 70.652 59.3532 71.116 59.5852C71.58 59.8172 71.928 60.1372 72.16 60.5452C72.392 60.9532 72.508 61.4212 72.508 61.9492ZM69.256 63.0052C69.648 63.0052 69.94 62.9132 70.132 62.7292C70.324 62.5452 70.42 62.2852 70.42 61.9492C70.42 61.6132 70.324 61.3532 70.132 61.1692C69.94 60.9852 69.648 60.8932 69.256 60.8932H68.14V63.0052H69.256Z" fill="#FCD240"/>
</svg>
