<svg width="49" height="43" viewBox="0 0 49 43" fill="none" xmlns="http://www.w3.org/2000/svg">
<path d="M3.92448 42.371C-3.72778 40.3277 2.03168 31.1242 7.63484 25.2779C10.5811 22.2043 9.77655 24.1492 10.3843 20.543C7.43804 23.3272 4.72906 23.2983 2.65103 21.8049C-5.7132 15.8023 7.99951 -3.25309 12.3524 2.06066C12.5955 2.30956 12.8097 2.95786 13.8053 3.05626C18.9685 3.57143 16.8442 4.29497 15.2639 20.7745C18.245 19.0322 20.4793 15.7676 22.3026 12.8155C23.796 17.9208 24.4038 17.4173 21.5733 20.3057C16.8326 25.0116 15.3681 23.9639 14.8993 26.1925C14.2394 29.2893 14.4825 45.2016 3.91869 42.3768L3.92448 42.371ZM7.03285 31.6741C1.92748 39.963 6.15879 38.8285 7.09651 37.9197C9.15139 35.9228 9.77075 30.1054 9.9965 28.2416C8.98932 28.9535 7.99951 30.0996 7.03285 31.6741ZM5.74782 17.7993C6.5061 19.1306 8.31787 19.258 9.51607 16.3638C10.2975 14.442 9.50449 16.4159 11.953 5.53947C8.451 5.53947 3.58875 14.0079 5.74782 17.7993Z" fill="#041C7A"/>
<path d="M43.8411 0L41.6415 0.295196L37.5433 0.845101C37.4044 0.862466 37.3349 1.02453 37.4275 1.1403L38.5273 2.489C38.3884 2.59319 38.2495 2.69739 38.099 2.80158C38.0816 2.80737 38.0758 2.81893 38.0643 2.82472C36.0267 4.24288 34.6318 1.96225 31.9286 1.79439L31.917 1.78282C31.6449 1.76545 31.3671 1.74809 31.0835 1.74809C17.7528 1.74809 18.129 22.76 27.9172 22.76C34.4581 22.76 38.4521 13.9442 35.7547 7.14865C37.5259 6.98079 38.892 6.28618 40.0844 5.28479C40.2291 5.16323 40.368 5.03011 40.507 4.89698L40.8253 5.28479L41.7283 6.39038C41.8209 6.50614 42.0004 6.46563 42.0409 6.33828L43.2275 2.71474L44.0437 0.237309C44.09 0.115752 43.98 -0.0115888 43.8469 0.00577638L43.8411 0ZM28.7507 18.656C23.217 18.656 25.9781 5.85785 29.9895 5.85785C34.3597 5.85785 32.3627 18.656 28.7507 18.656Z" fill="#041C7A"/>
<path d="M27.691 30.2372V31.8812H25.459V38.6612H23.407V31.8812H21.175V30.2372H27.691ZM33.0168 38.6612L31.2648 35.4812H30.7728V38.6612H28.7208V30.2372H32.1648C32.8288 30.2372 33.3928 30.3532 33.8568 30.5852C34.3288 30.8172 34.6808 31.1372 34.9128 31.5452C35.1448 31.9452 35.2608 32.3932 35.2608 32.8892C35.2608 33.4492 35.1008 33.9492 34.7808 34.3892C34.4688 34.8292 34.0048 35.1412 33.3888 35.3252L35.3328 38.6612H33.0168ZM30.7728 34.0292H32.0448C32.4208 34.0292 32.7008 33.9372 32.8848 33.7532C33.0768 33.5692 33.1728 33.3092 33.1728 32.9732C33.1728 32.6532 33.0768 32.4012 32.8848 32.2172C32.7008 32.0332 32.4208 31.9412 32.0448 31.9412H30.7728V34.0292ZM38.6009 30.2372V38.6612H36.5489V30.2372H38.6009ZM46.508 32.9492C46.508 33.4372 46.396 33.8852 46.172 34.2932C45.948 34.6932 45.604 35.0172 45.14 35.2652C44.676 35.5132 44.1 35.6372 43.412 35.6372H42.14V38.6612H40.088V30.2372H43.412C44.084 30.2372 44.652 30.3532 45.116 30.5852C45.58 30.8172 45.928 31.1372 46.16 31.5452C46.392 31.9532 46.508 32.4212 46.508 32.9492ZM43.256 34.0052C43.648 34.0052 43.94 33.9132 44.132 33.7292C44.324 33.5452 44.42 33.2852 44.42 32.9492C44.42 32.6132 44.324 32.3532 44.132 32.1692C43.94 31.9852 43.648 31.8932 43.256 31.8932H42.14V34.0052H43.256Z" fill="#FCD240"/>
</svg>
