<svg width="172" height="131" viewBox="0 0 172 131" fill="none" xmlns="http://www.w3.org/2000/svg">
<mask id="mask0_411_2258" style="mask-type:alpha" maskUnits="userSpaceOnUse" x="0" y="0" width="172" height="131">
<rect width="172" height="131" rx="20" fill="#D9D9D9"/>
</mask>
<g mask="url(#mask0_411_2258)">
<path d="M128.439 53.845C129.043 53.8457 129.622 54.0855 130.048 54.512C130.475 54.9384 130.715 55.5165 130.716 56.1195V81.4047C130.715 82.0077 130.475 82.5859 130.048 83.0123C129.622 83.4387 129.043 83.6785 128.439 83.6793H7.27673C6.67322 83.6785 6.09463 83.4387 5.66787 83.0123C5.24112 82.5859 5.00107 82.0077 5.00036 81.4047V56.1195C5.00107 55.5165 5.24112 54.9384 5.66787 54.512C6.09463 54.0856 6.67322 53.8457 7.27673 53.845L128.439 53.845Z" fill="#E6E6E6"/>
<path d="M127.845 55.708C128.195 55.7084 128.53 55.8474 128.778 56.0946C129.025 56.3419 129.165 56.6771 129.165 57.0268V80.6762C129.165 81.0259 129.025 81.3611 128.778 81.6083C128.53 81.8556 128.195 81.9946 127.845 81.995H8.31931C7.96941 81.9946 7.63397 81.8555 7.38658 81.6083C7.13918 81.3611 7.00005 81.0258 6.99973 80.6762V57.0268C7.00005 56.6771 7.13918 56.3419 7.38658 56.0947C7.63397 55.8475 7.96941 55.7084 8.31931 55.708H127.845Z" fill="white"/>
<path d="M15.1396 75.9935C14.5723 75.9921 14.0286 75.7661 13.6277 75.3651C13.2268 74.964 13.0012 74.4205 13.0005 73.8537C12.9997 73.2868 13.2238 72.7427 13.6236 72.3405C14.0235 71.9384 14.5665 71.7109 15.1338 71.708C15.1358 71.708 15.1377 71.708 15.1396 71.708H116.237C116.804 71.7103 117.348 71.9371 117.748 72.3387C118.148 72.7403 118.373 73.284 118.373 73.8508C118.373 74.4176 118.148 74.9613 117.748 75.3629C117.348 75.7645 116.804 75.9912 116.237 75.9935H15.1396Z" fill="#D1E1FF"/>
<path d="M73.195 66.1114C72.9132 66.1118 72.634 66.0566 72.3736 65.9491C72.1131 65.8416 71.8764 65.6838 71.6769 65.4848C71.4775 65.2858 71.3193 65.0494 71.2114 64.7893C71.1035 64.5291 71.0479 64.2503 71.0479 63.9687C71.0479 63.6871 71.1035 63.4082 71.2114 63.1481C71.3193 62.8879 71.4775 62.6516 71.6769 62.4526C71.8764 62.2536 72.1131 62.0958 72.3736 61.9883C72.634 61.8808 72.9132 61.8256 73.195 61.8259H116.698C116.979 61.8256 117.259 61.8808 117.519 61.9883C117.78 62.0958 118.016 62.2536 118.216 62.4526C118.415 62.6516 118.573 62.8879 118.681 63.1481C118.789 63.4082 118.845 63.6871 118.845 63.9687C118.845 64.2503 118.789 64.5291 118.681 64.7893C118.573 65.0494 118.415 65.2858 118.216 65.4848C118.016 65.6838 117.78 65.8416 117.519 65.9491C117.259 66.0566 116.979 66.1118 116.698 66.1114H73.195Z" fill="#1668FF"/>
<path d="M8.47682 60.9457C5.45181 60.9457 2.99955 58.4954 2.99955 55.4729C2.99955 52.4503 5.45181 50 8.47682 50C11.5018 50 13.9541 52.4503 13.9541 55.4729C13.9541 58.4954 11.5018 60.9457 8.47682 60.9457Z" fill="#FD5B1F"/>
<path d="M128.329 38.861C128.427 39.0605 128.508 39.2673 128.573 39.4796L147.635 45.2199L151.164 41.9158L156.851 46.586L151.172 53.0421C150.713 53.5637 150.097 53.9225 149.417 54.0646C148.737 54.2068 148.029 54.1246 147.399 53.8304L126.882 44.2439C126.169 44.716 125.328 44.96 124.473 44.9433C123.617 44.9266 122.787 44.6501 122.093 44.1504C121.398 43.6508 120.873 42.9518 120.585 42.1463C120.298 41.3408 120.263 40.4671 120.485 39.6414C120.707 38.8156 121.176 38.077 121.828 37.5237C122.481 36.9704 123.286 36.6286 124.138 36.5439C124.989 36.4592 125.846 36.6355 126.595 37.0494C127.344 37.4633 127.949 38.0952 128.329 38.861L128.329 38.861Z" fill="#FFB6B6"/>
<path d="M148.267 45.4522L155.28 51.2836C155.48 51.4495 155.713 51.5705 155.963 51.6384C156.214 51.7062 156.476 51.7193 156.732 51.6767C156.988 51.6341 157.232 51.5369 157.447 51.3917C157.662 51.2465 157.843 51.0566 157.978 50.8351L162.709 43.0727C163.553 42.0477 163.955 40.7306 163.828 39.41C163.7 38.0894 163.055 36.873 162.032 36.0273C161.008 35.1817 159.692 34.7757 158.37 34.8985C157.047 35.0212 155.828 35.6626 154.978 36.6822L148.219 42.7195C148.025 42.8924 147.871 43.1049 147.767 43.3427C147.664 43.5804 147.612 43.8377 147.617 44.097C147.621 44.3563 147.682 44.6116 147.794 44.8455C147.906 45.0794 148.068 45.2863 148.267 45.4522Z" fill="#1D3387"/>
<path d="M153.228 119.624L144.917 150.388H138.473L139.888 116.742L143.624 83.9609L157.193 83.2405L153.228 119.624Z" fill="#1B1B1B"/>
<path d="M167.649 83.9609C167.649 83.9609 168.37 88.6439 165.486 93.6872C162.602 98.7304 164.404 115.661 164.404 115.661L188.735 140.087C188.735 140.087 184.954 146.641 183.151 146.281C181.349 145.921 152.867 122.866 152.867 122.866L143.624 85.4019L167.649 83.9609Z" fill="#1B1B1B"/>
<path d="M154.232 29.4283C149.653 29.4283 145.94 25.7189 145.94 21.143C145.94 16.5671 149.653 12.8577 154.232 12.8577C158.812 12.8577 162.524 16.5671 162.524 21.143C162.524 25.7189 158.812 29.4283 154.232 29.4283Z" fill="#FFB6B6"/>
<path d="M154.582 34.171C154.582 34.171 164.248 30.5148 164.248 31.5955C164.248 32.6762 173.777 41.8139 171.614 53.7016C169.451 65.5892 166.927 71.3529 168.009 77.8371C169.09 84.3213 168.369 85.7622 168.369 85.7622C168.369 85.7622 143.263 87.9236 142.903 85.4019C142.542 82.8803 143.95 79.0345 143.95 77.9538C143.95 76.8731 153.912 36.952 154.582 34.171Z" fill="#04196B"/>
<path d="M157.986 26.1216C157.315 25.767 156.535 25.6939 155.808 25.4734C153.209 24.6848 151.467 21.7485 152.023 19.0914C152.126 18.7506 152.172 18.3953 152.16 18.0396C152.063 17.2527 151.257 16.7449 150.484 16.5646C149.711 16.3843 148.889 16.4105 148.15 16.1205C147.01 15.6728 146.252 14.5018 146.088 13.2886C145.97 12.0603 146.244 10.8262 146.87 9.76277L147.149 10.5654C147.575 10.2053 147.891 9.73304 148.061 9.20237C148.379 9.25564 148.677 9.38939 148.928 9.59081C149.178 9.79223 149.373 10.0546 149.493 10.3527C149.941 10.6167 150.006 9.53259 150.501 9.37266C150.718 9.34552 150.938 9.39974 151.118 9.5249C152.116 9.98964 153.274 9.59229 154.344 9.33468C156.196 8.89069 158.127 8.88842 159.981 9.32804C161.212 9.62151 162.431 10.1326 163.312 11.0407C164.001 11.8225 164.531 12.7315 164.871 13.7164C165.816 16.0929 166.44 18.6643 166.128 21.2025C165.868 23.2795 164.998 25.2331 163.629 26.8168C162.915 27.6383 160.587 30.5041 159.311 30.0155C157.707 29.4016 159.876 27.12 157.986 26.1216Z" fill="#1B1B1B"/>
<path opacity="0.2" d="M143.919 97.9901L153.406 122.844L152.927 123.027L143.44 98.1727L143.919 97.9901Z" fill="black"/>
<path d="M117.356 25C117.783 25.0005 118.192 25.1703 118.494 25.472C118.796 25.7738 118.966 26.1829 118.967 26.6097V44.5036C118.966 44.9304 118.796 45.3395 118.494 45.6413C118.192 45.943 117.783 46.1128 117.356 46.1133H31.6107C31.1836 46.1128 30.7741 45.943 30.4721 45.6413C30.1701 45.3395 30.0003 44.9304 29.9997 44.5036V26.6097C30.0002 26.1829 30.1701 25.7738 30.4721 25.472C30.7741 25.1703 31.1836 25.0005 31.6107 25H117.356Z" fill="#E6E6E6"/>
<path d="M116.777 26.2551C117.024 26.2554 117.262 26.3538 117.437 26.5287C117.612 26.7037 117.711 26.9409 117.711 27.1884V43.9248C117.711 44.1722 117.612 44.4095 117.437 44.5844C117.262 44.7594 117.024 44.8578 116.777 44.858H32.1902C31.9425 44.8578 31.7051 44.7593 31.5301 44.5844C31.355 44.4094 31.2565 44.1722 31.2563 43.9248V27.1884C31.2565 26.941 31.355 26.7037 31.5301 26.5288C31.7051 26.3538 31.9425 26.2554 32.1902 26.2551H116.777Z" fill="white"/>
<path d="M37.5018 40.2689C37.0994 40.2692 36.7134 40.1099 36.4285 39.8259C36.1437 39.5419 35.9834 39.1566 35.9829 38.7545C35.9823 38.3525 36.1416 37.9667 36.4256 37.682C36.7097 37.3972 37.0953 37.2368 37.4976 37.2361C37.499 37.2361 37.5004 37.2361 37.5018 37.2361H109.047C109.449 37.2367 109.835 37.3967 110.119 37.681C110.403 37.9653 110.562 38.3507 110.562 38.7525C110.562 39.1543 110.403 39.5396 110.119 39.824C109.835 40.1083 109.449 40.2683 109.047 40.2689H37.5018Z" fill="#E6E6E6"/>
<path d="M78.2604 33.6808C78.0609 33.6811 77.8633 33.642 77.679 33.566C77.4946 33.4899 77.327 33.3782 77.1859 33.2374C77.0447 33.0966 76.9327 32.9293 76.8563 32.7452C76.7799 32.561 76.7406 32.3637 76.7406 32.1644C76.7406 31.965 76.7799 31.7677 76.8563 31.5835C76.9327 31.3994 77.0447 31.2322 77.1859 31.0913C77.327 30.9505 77.4946 30.8388 77.679 30.7628C77.8633 30.6867 78.0609 30.6477 78.2604 30.648H109.047C109.246 30.6477 109.444 30.6867 109.628 30.7628C109.812 30.8388 109.98 30.9505 110.121 31.0913C110.262 31.2322 110.374 31.3994 110.451 31.5835C110.527 31.7677 110.566 31.965 110.566 32.1644C110.566 32.3637 110.527 32.561 110.451 32.7452C110.374 32.9293 110.262 33.0966 110.121 33.2374C109.98 33.3782 109.812 33.4899 109.628 33.566C109.444 33.642 109.246 33.6811 109.047 33.6808H78.2604Z" fill="#E4E4E4"/>
<path d="M130.982 53.3773C131.142 53.5308 131.29 53.6968 131.425 53.8736L151.297 52.6857L153.468 48.3672L160.419 50.7886L157.32 58.8068C157.069 59.4545 156.615 60.0037 156.026 60.3717C155.437 60.7398 154.744 60.9069 154.052 60.848L131.484 58.9283C130.977 59.6176 130.273 60.1364 129.464 60.4159C128.656 60.6954 127.781 60.7222 126.957 60.4928C126.132 60.2634 125.397 59.7887 124.85 59.1318C124.302 58.4749 123.967 57.667 123.89 56.8154C123.813 55.9639 123.998 55.1091 124.419 54.3647C124.84 53.6204 125.478 53.0218 126.248 52.6486C127.017 52.2753 127.883 52.1451 128.729 52.2753C129.574 52.4055 130.36 52.7898 130.982 53.3773L130.982 53.3773Z" fill="#FFB6B6"/>
<path d="M151.972 52.6852L160.568 55.7389C160.813 55.8258 161.073 55.859 161.332 55.8362C161.591 55.8134 161.841 55.7353 162.067 55.607C162.293 55.4787 162.488 55.3034 162.64 55.0929C162.791 54.8824 162.896 54.6417 162.946 54.3872L164.704 45.47C165.141 44.2173 165.063 42.8426 164.487 41.6472C163.912 40.4518 162.885 39.533 161.633 39.0923C160.381 38.6516 159.005 38.7248 157.807 39.296C156.608 39.8671 155.685 40.8896 155.24 42.1394L150.982 50.1373C150.86 50.3663 150.789 50.6189 150.774 50.8778C150.759 51.1367 150.799 51.3959 150.893 51.6377C150.987 51.8795 151.132 52.0982 151.318 52.279C151.504 52.4598 151.727 52.5983 151.972 52.6852H151.972Z" fill="#1D3387"/>
</g>
</svg>
