<svg width="259" height="213" viewBox="0 0 259 213" fill="none" xmlns="http://www.w3.org/2000/svg">
<path fill-rule="evenodd" clip-rule="evenodd" d="M258.791 202.662C258.791 207.837 254.621 212.033 249.351 212.033H9.44037C4.22665 212.033 0.000100613 207.808 0.000100613 202.662V80.2452C0.000100613 75.0696 4.16991 70.874 9.44037 70.874H249.351C254.564 70.874 258.791 75.0986 258.791 80.2452V202.662Z" fill="#595959"/>
<path d="M18.8214 132.043C13.624 132.043 9.41078 136.256 9.41078 141.453C9.41078 146.651 13.624 150.864 18.8214 150.864C24.0187 150.864 28.2319 146.651 28.2319 141.453C28.2319 136.256 24.0187 132.043 18.8214 132.043Z" fill="#868686"/>
<path fill-rule="evenodd" clip-rule="evenodd" d="M239.97 197.901C239.97 200.509 237.834 202.622 235.266 202.622H42.3457C39.7481 202.622 37.6423 200.499 37.6423 197.901V85.0055C37.6423 82.3982 39.7776 80.2846 42.3457 80.2846H235.266C237.864 80.2846 239.97 82.408 239.97 85.0055V197.901Z" fill="#B4DFFB"/>
<path fill-rule="evenodd" clip-rule="evenodd" d="M112.927 132.043L150.569 202.622H75.2847L112.927 132.043Z" fill="#9C4D4D"/>
<path d="M197.622 42.6423V5" stroke="#ED9111" stroke-width="9.41058" stroke-linecap="round" stroke-linejoin="round"/>
<path d="M171.032 44.2841L145.864 19.1158" stroke="#ED9111" stroke-width="9.41058" stroke-linecap="round"/>
<path d="M225.855 44.2841L251.023 19.1158" stroke="#ED9111" stroke-width="9.41058" stroke-linecap="round"/>
<path d="M159.98 155.569C170.374 155.569 178.801 147.143 178.801 136.748C178.801 126.353 170.374 117.927 159.98 117.927C149.585 117.927 141.159 126.353 141.159 136.748C141.159 147.143 149.585 155.569 159.98 155.569Z" fill="#ED9111"/>
</svg>
