<svg width="259" height="301" viewBox="0 0 259 301" fill="none" xmlns="http://www.w3.org/2000/svg">
<path fill-rule="evenodd" clip-rule="evenodd" d="M43.7729 14.0882L68.1745 -9.83037e-05L144.756 132.642L120.354 146.73L43.7729 14.0882Z" fill="#D8D8D8"/>
<path fill-rule="evenodd" clip-rule="evenodd" d="M213.411 14.0885L189.01 0.000213181L112.429 132.642L136.83 146.731L213.411 14.0885Z" fill="#D8D8D8"/>
<path fill-rule="evenodd" clip-rule="evenodd" d="M0 137.045H258.791L248.228 300.77H10.5629L0 137.045Z" fill="#E43535"/>
<path fill-rule="evenodd" clip-rule="evenodd" d="M0 137.045H258.791V163.452H0V137.045Z" fill="#868686"/>
<path d="M129.395 152.889C139.604 152.889 147.88 144.613 147.88 134.404C147.88 124.195 139.604 115.919 129.395 115.919C119.186 115.919 110.91 124.195 110.91 134.404C110.91 144.613 119.186 152.889 129.395 152.889Z" fill="#E43535"/>
</svg>
