<svg width="476" height="436" viewBox="0 0 476 436" fill="none" xmlns="http://www.w3.org/2000/svg">
<path d="M448.987 214.648C449.011 233.716 446.478 252.7 441.456 271.095C435.474 292.99 426.065 313.801 413.579 332.754C411.08 336.539 408.475 340.216 405.762 343.822C384.848 371.57 357.513 393.825 326.104 408.674C294.694 423.523 260.151 430.524 225.44 429.073C190.729 427.623 156.89 417.765 126.828 400.348C96.7665 382.93 71.3816 358.472 52.8545 329.077C46.8718 319.656 41.6556 309.77 37.2562 299.514C35.7571 296.015 34.3293 292.445 33.0086 288.839C24.262 265.084 19.8024 239.963 19.8375 214.648C19.8375 209.328 20.0161 204.08 20.4444 198.867C24.4954 143.44 49.884 91.7465 91.2672 54.6644C132.65 17.5822 186.801 -1.99669 242.324 0.0478977C297.847 2.09249 350.412 25.6011 388.957 65.6266C427.502 105.652 449.022 159.073 448.987 214.648Z" fill="url(#paint0_linear_21_3)"/>
<path d="M448.987 214.648C449.011 233.716 446.478 252.7 441.456 271.095C435.474 292.99 426.065 313.801 413.579 332.754C357.218 338.609 288.257 340.43 279.583 315.866C264.628 273.558 311.066 237.284 339.371 245.388C337.443 241.104 343.512 229.964 354.006 232.499C349.865 225.18 358.467 211.506 374.994 219.075C369.889 199.617 390.592 180.658 405.762 192.44C404.798 174.624 418.469 146.74 441.063 156.701C446.343 175.563 449.009 195.061 448.987 214.648V214.648Z" fill="url(#paint1_linear_21_3)"/>
<path d="M158.937 332.176C111.607 330.712 77.1978 329.748 52.8545 329.069C46.8718 319.649 41.6556 309.763 37.2562 299.507C35.7571 296.008 34.3293 292.438 33.0086 288.832C24.262 265.076 19.8024 239.956 19.8375 214.641C19.8375 209.321 20.0161 204.072 20.4444 198.86C42.3249 194.361 64.6336 204.072 69.024 226.565C84.2654 212.141 139.841 222.317 139.841 260.484C161.043 242.668 197.487 270.445 189.884 299.507C201.734 297.401 223.044 312.253 221.081 317.752C219.117 323.25 270.089 335.575 158.937 332.176Z" fill="url(#paint2_linear_21_3)"/>
<path d="M431.569 299.372C428.935 305.59 425.981 311.668 422.717 317.58C417.717 326.732 412.05 335.503 405.762 343.822C383.438 373.442 353.822 396.769 319.801 411.531C285.78 426.292 248.516 431.983 211.641 428.049C174.766 424.115 139.54 410.69 109.397 389.083C79.2544 367.477 55.2236 338.426 39.6479 304.763C38.7913 303.013 38.0058 301.264 37.2563 299.514C35.7571 296.015 34.3293 292.445 33.0087 288.839C60.1005 291.124 83.4802 279.556 117.747 296.979C165.291 321.151 169.503 286.376 219.153 303.763C268.804 321.15 299.179 301.085 343.833 310.975C376.129 318.116 410.545 305.155 431.569 299.372Z" fill="url(#paint3_linear_21_3)"/>
<path d="M422.717 317.58C417.717 326.732 412.05 335.503 405.762 343.822C383.438 373.442 353.822 396.769 319.801 411.531C285.78 426.292 248.516 431.983 211.641 428.049C174.766 424.115 139.54 410.69 109.397 389.083C79.2544 367.477 55.2236 338.426 39.6479 304.763C64.027 305.048 86.3001 296.622 117.747 312.617C165.291 336.789 169.503 302.014 219.153 319.401C268.804 336.789 299.179 316.723 343.833 326.613C371.924 332.825 401.657 323.828 422.717 317.58Z" fill="url(#paint4_linear_21_3)"/>
<path d="M405.755 343.822C385.848 370.233 360.109 391.686 330.547 406.506C300.984 421.326 268.397 429.113 235.33 429.258C202.263 429.403 169.609 421.903 139.918 407.343C110.226 392.783 84.3001 371.557 64.1625 345.322C61.7353 342.144 59.3796 338.931 57.1309 335.61C53.4544 330.291 50.0514 324.792 46.9222 319.115C43.3566 312.756 40.1279 306.213 37.2493 299.514C76.2272 330.933 85.9715 313.51 166.961 326.042C247.951 338.574 253.912 353.391 296.745 349.999C332.696 347.142 378.17 336.182 405.755 343.822Z" fill="url(#paint5_linear_21_3)"/>
<path d="M105.468 340.466C91.2972 339.502 67.6319 336.824 57.1379 335.61C53.4614 330.291 50.0586 324.792 46.9294 319.115C60.3504 323.935 67.7747 325.114 78.9826 329.005C92.9747 333.897 134.451 334.396 135.379 336.61C136.307 338.824 124.129 341.751 105.468 340.466Z" fill="url(#paint6_linear_21_3)"/>
<path d="M111.793 326.042C128.005 327.559 147.733 330.391 166.976 332.194C186.218 333.997 203.555 333.675 204.347 334.632C205.14 335.589 233.77 346.882 244.264 350.22C254.758 353.558 251.263 352.448 245.22 353.076C239.177 353.705 194.01 354.03 177.948 354.505C161.886 354.979 160.458 359.278 154.411 355.301C148.365 351.323 131.828 341.301 127.377 338.438C122.926 335.575 107.963 325.685 111.793 326.042Z" fill="url(#paint7_linear_21_3)"/>
<path d="M172.508 339.47C172.087 342.594 162.243 343.843 150.521 342.262C138.799 340.68 129.64 336.86 130.061 333.732C130.482 330.605 140.327 329.359 152.049 330.944C163.77 332.529 172.93 336.346 172.508 339.47Z" fill="url(#paint8_linear_21_3)"/>
<path d="M97.8506 233.777L149.589 332.19" stroke="#707070" stroke-width="2" stroke-linecap="round" stroke-linejoin="round"/>
<path d="M191.99 196.439C181.702 206.821 170.744 216.518 159.187 225.466C149.943 232.714 140.555 239.354 131.239 245.388C117.571 254.22 103.44 262.313 88.9057 269.631C75.8774 276.2 63.7771 281.556 53.2474 285.84C40.539 291.14 27.5367 295.705 14.3051 299.514L71.7726 193.047L71.9868 192.619C71.9868 192.619 73.5215 192.69 76.3056 192.797C77.7691 192.833 79.5538 192.905 81.6597 192.976C104.076 193.797 159.973 195.789 191.99 196.439Z" fill="url(#paint9_linear_21_3)"/>
<path d="M71.7727 193.047L71.8796 192.44C71.9153 192.512 71.9154 192.619 71.9511 192.69C75.2706 207.4 84.6939 249.53 88.9058 269.631C75.8774 276.2 63.7772 281.556 53.2474 285.84L71.7727 193.047Z" fill="url(#paint10_linear_21_3)"/>
<path d="M159.187 225.466C149.943 232.714 140.555 239.354 131.239 245.388L76.3057 192.797C77.7691 192.833 79.5538 192.904 81.6598 192.976L159.187 225.466Z" fill="url(#paint11_linear_21_3)"/>
<path d="M378.028 374.063C356.039 393.886 330.187 408.944 302.099 418.29C274.01 427.635 244.292 431.066 214.813 428.367C185.334 425.667 156.733 416.896 130.808 402.604C104.883 388.312 82.1942 368.809 64.1697 345.322C79.304 347.964 88.9414 343.751 117.746 360.495C161.258 385.845 193.061 409.766 239.499 393.985C285.937 378.204 275.122 358.318 317.098 370.171C336.992 375.226 357.652 376.546 378.028 374.063V374.063Z" fill="url(#paint12_linear_21_3)"/>
<path d="M441.449 271.095C440.021 276.307 438.415 281.448 436.594 286.518C429.319 307.091 418.917 326.419 405.755 343.822C390.498 364.02 371.806 381.374 350.536 395.092C347.145 397.305 343.647 399.412 340.113 401.411C325.836 366.601 346.824 361.352 355.569 362.316C351.46 358.909 348.742 354.115 347.926 348.839C347.111 343.563 348.255 338.172 351.143 333.682C361.316 316.83 374.665 323.828 374.665 323.828C374.665 323.828 367.062 307.333 378.02 299.514C380.781 297.293 384.296 296.23 387.825 296.549C391.354 296.869 394.621 298.546 396.938 301.228C396.938 301.228 399.051 264.097 441.449 271.095Z" fill="url(#paint13_linear_21_3)"/>
<path d="M436.601 286.518C429.327 307.091 418.925 326.42 405.762 343.822C390.505 364.02 371.813 381.374 350.543 395.092C350.508 392.54 351.03 390.011 352.073 387.681C353.116 385.352 354.655 383.278 356.582 381.606C358.51 379.933 360.779 378.701 363.231 377.996C365.684 377.292 368.261 377.131 370.782 377.526C366.673 374.119 363.955 369.324 363.139 364.049C362.324 358.773 363.468 353.381 366.356 348.892C376.528 332.04 389.878 339.038 389.878 339.038C389.878 339.038 382.275 322.543 393.233 314.724C395.994 312.502 399.509 311.439 403.038 311.759C406.567 312.079 409.834 313.756 412.151 316.438C412.151 316.438 413.507 292.052 436.601 286.518Z" fill="url(#paint14_linear_21_3)"/>
<path d="M239.927 324.856C253.809 327.474 262.236 316.163 266.212 319.115C270.189 322.068 289.995 326.488 301.721 324.278C290.702 330.494 277.981 326.181 270.189 326.031C262.397 325.881 244.906 331.986 231.182 325.406C238.221 326.031 239.927 324.856 239.927 324.856Z" fill="url(#paint15_linear_21_3)"/>
<path d="M131.778 145.969C131.778 147.564 131.306 149.123 130.421 150.449C129.536 151.775 128.278 152.809 126.805 153.42C125.332 154.031 123.712 154.191 122.148 153.88C120.584 153.569 119.148 152.802 118.02 151.674C116.893 150.547 116.125 149.111 115.813 147.547C115.502 145.983 115.662 144.362 116.271 142.888C116.881 141.415 117.914 140.156 119.24 139.27C120.565 138.384 122.124 137.911 123.718 137.911C125.855 137.911 127.905 138.76 129.416 140.271C130.927 141.782 131.777 143.832 131.778 145.969Z" stroke="white" stroke-miterlimit="10"/>
<path d="M61.307 29.3159C61.307 30.9104 60.8343 32.4691 59.9487 33.7948C59.063 35.1206 57.8043 36.1539 56.3315 36.764C54.8588 37.3742 53.2382 37.5339 51.6748 37.2228C50.1114 36.9117 48.6753 36.1439 47.5481 35.0165C46.4209 33.889 45.6535 32.4525 45.3425 30.8887C45.0315 29.3249 45.1911 27.7039 45.8011 26.2308C46.4111 24.7577 47.444 23.4986 48.7694 22.6128C50.0948 21.727 51.6532 21.2542 53.2473 21.2542C54.3059 21.2537 55.3541 21.4619 56.3322 21.8668C57.3103 22.2718 58.1989 22.8656 58.9474 23.6143C59.6959 24.363 60.2895 25.252 60.6944 26.2303C61.0993 27.2086 61.3075 28.2571 61.307 29.3159V29.3159Z" stroke="#00B53E" stroke-miterlimit="10"/>
<path d="M475.215 105.103C475.215 106.697 474.742 108.254 473.856 109.579C472.97 110.904 471.712 111.936 470.24 112.545C468.768 113.155 467.148 113.314 465.586 113.003C464.023 112.691 462.588 111.923 461.461 110.796C460.335 109.669 459.568 108.233 459.258 106.67C458.947 105.107 459.107 103.487 459.717 102.015C460.326 100.543 461.359 99.2844 462.684 98.3992C464.009 97.5139 465.566 97.0414 467.159 97.0414C468.218 97.0414 469.265 97.2499 470.243 97.6551C471.221 98.0603 472.109 98.6542 472.857 99.4028C473.605 100.151 474.198 101.04 474.603 102.018C475.008 102.996 475.216 104.045 475.215 105.103V105.103Z" stroke="#00B53E" stroke-linecap="round" stroke-linejoin="round"/>
<path d="M306.232 207.828C306.232 209.423 305.76 210.982 304.874 212.307C303.988 213.633 302.73 214.666 301.257 215.277C299.784 215.887 298.164 216.046 296.6 215.735C295.037 215.424 293.601 214.656 292.474 213.529C291.347 212.401 290.579 210.965 290.268 209.401C289.957 207.837 290.116 206.216 290.727 204.743C291.337 203.27 292.37 202.011 293.695 201.125C295.02 200.239 296.579 199.767 298.173 199.767C300.31 199.767 302.36 200.616 303.872 202.128C305.383 203.64 306.232 205.69 306.232 207.828V207.828Z" stroke="white" stroke-miterlimit="10"/>
<path d="M391.809 421.687L378.028 435.472" stroke="#00B53E" stroke-linecap="round" stroke-linejoin="round"/>
<path d="M391.809 435.472L378.028 421.687" stroke="#00B53E" stroke-linecap="round" stroke-linejoin="round"/>
<path d="M14.3052 344.425L0.523682 358.21" stroke="#00B53E" stroke-linecap="round" stroke-linejoin="round"/>
<path d="M14.3052 358.21L0.523682 344.425" stroke="#00B53E" stroke-linecap="round" stroke-linejoin="round"/>
<path d="M299.943 83.2493L286.162 97.0343" stroke="white" stroke-linecap="round" stroke-linejoin="round"/>
<path d="M299.943 97.0343L286.162 83.2493" stroke="white" stroke-linecap="round" stroke-linejoin="round"/>
<defs>
<linearGradient id="paint0_linear_21_3" x1="249.433" y1="-271.881" x2="235.687" y2="172.933" gradientUnits="userSpaceOnUse">
<stop offset="0.625883" stop-color="#ACD8DE"/>
<stop offset="1" stop-color="#CCECE9"/>
</linearGradient>
<linearGradient id="paint1_linear_21_3" x1="324.414" y1="192.254" x2="441.677" y2="323.492" gradientUnits="userSpaceOnUse">
<stop stop-color="white"/>
<stop offset="1" stop-color="white" stop-opacity="0"/>
</linearGradient>
<linearGradient id="paint2_linear_21_3" x1="137.28" y1="242.597" x2="119.468" y2="321.603" gradientUnits="userSpaceOnUse">
<stop stop-color="white"/>
<stop offset="1" stop-color="white" stop-opacity="0"/>
</linearGradient>
<linearGradient id="paint3_linear_21_3" x1="241.854" y1="278.072" x2="231.842" y2="418.486" gradientUnits="userSpaceOnUse">
<stop stop-color="#99C0FF"/>
<stop offset="1" stop-color="#5B94E8"/>
</linearGradient>
<linearGradient id="paint4_linear_21_3" x1="243.824" y1="273.964" x2="241.417" y2="338.926" gradientUnits="userSpaceOnUse">
<stop stop-color="#99C0FF"/>
<stop offset="1" stop-color="#5B94E8"/>
</linearGradient>
<linearGradient id="paint5_linear_21_3" x1="200.866" y1="487.516" x2="203.886" y2="292.438" gradientUnits="userSpaceOnUse">
<stop stop-color="#FFB6A4"/>
<stop offset="1" stop-color="#FBBF23"/>
</linearGradient>
<linearGradient id="paint6_linear_21_3" x1="87.1082" y1="325.16" x2="94.6518" y2="476.352" gradientUnits="userSpaceOnUse">
<stop stop-color="#FFB6A4"/>
<stop offset="1" stop-color="#FFD1C9"/>
</linearGradient>
<linearGradient id="paint7_linear_21_3" x1="271.112" y1="300.351" x2="253.578" y2="455.528" gradientUnits="userSpaceOnUse">
<stop stop-color="white"/>
<stop offset="1" stop-color="#A5CFF9"/>
</linearGradient>
<linearGradient id="paint8_linear_21_3" x1="156.339" y1="304.708" x2="155.712" y2="349.028" gradientUnits="userSpaceOnUse">
<stop stop-color="white"/>
<stop offset="1" stop-color="#A5CFF9"/>
</linearGradient>
<linearGradient id="paint9_linear_21_3" x1="130.511" y1="143.661" x2="106.604" y2="395.667" gradientUnits="userSpaceOnUse">
<stop stop-color="#FFB6A4"/>
<stop offset="1" stop-color="#EB0022"/>
</linearGradient>
<linearGradient id="paint10_linear_21_3" x1="-1.02454" y1="96.8925" x2="138.2" y2="142.279" gradientUnits="userSpaceOnUse">
<stop stop-color="#FFB6A4"/>
<stop offset="1" stop-color="#EB0022"/>
</linearGradient>
<linearGradient id="paint11_linear_21_3" x1="56.1654" y1="71.3651" x2="93.6732" y2="279.796" gradientUnits="userSpaceOnUse">
<stop stop-color="#FFB6A4"/>
<stop offset="1" stop-color="#EB0022"/>
</linearGradient>
<linearGradient id="paint12_linear_21_3" x1="198.815" y1="443.614" x2="208.332" y2="-60.0766" gradientUnits="userSpaceOnUse">
<stop stop-color="#FFDF8B"/>
<stop offset="1" stop-color="#FFD1C9"/>
</linearGradient>
<linearGradient id="paint13_linear_21_3" x1="381.989" y1="299.079" x2="409.048" y2="379.463" gradientUnits="userSpaceOnUse">
<stop stop-color="#85DD86"/>
<stop offset="1" stop-color="#00B53E"/>
</linearGradient>
<linearGradient id="paint14_linear_21_3" x1="358.717" y1="281.958" x2="410.926" y2="337.315" gradientUnits="userSpaceOnUse">
<stop stop-color="#85DD86"/>
<stop offset="1" stop-color="#00B53E"/>
</linearGradient>
<linearGradient id="paint15_linear_21_3" x1="274.211" y1="300.66" x2="274.054" y2="325.738" gradientUnits="userSpaceOnUse">
<stop stop-color="#99C0FF"/>
<stop offset="1" stop-color="#5B94E8"/>
</linearGradient>
</defs>
</svg>
