<svg xmlns="http://www.w3.org/2000/svg" width="100.583" height="72.417" viewBox="0 0 100.583 72.417">
  <defs>
    <style>
      .cls-1 {
        fill: #455a64;
      }

      .cls-2 {
        fill: #ebebeb;
      }

      .cls-3 {
        fill: #c7c7c7;
      }

      .cls-4 {
        fill: #a6a6a6;
      }

      .cls-5 {
        fill: #ffc727;
      }

      .cls-6 {
        opacity: 0.1;
      }

      .cls-7 {
        fill: #263238;
      }
    </style>
  </defs>
  <g id="Groupe_191" data-name="Groupe 191" transform="translate(-243.986 -138.553)">
    <circle id="Ellipse_9" data-name="Ellipse 9" class="cls-1" cx="23.17" cy="23.17" r="23.17" transform="translate(298.229 138.553)"/>
    <circle id="Ellipse_10" data-name="Ellipse 10" class="cls-2" cx="15.828" cy="15.828" r="15.828" transform="translate(243.986 179.313)"/>
    <g id="Groupe_109" data-name="Groupe 109">
      <g id="Groupe_108" data-name="Groupe 108">
        <path id="Tracé_290" data-name="Tracé 290" class="cls-3" d="M307.271,157.4V174.02h-4.7V157.4c0-6.319-4.8-11.458-10.705-11.458s-10.7,5.139-10.7,11.458V174.02h-4.7V157.4c0-9.051,6.908-16.41,15.4-16.41S307.271,148.351,307.271,157.4Z"/>
        <path id="Tracé_291" data-name="Tracé 291" class="cls-4" d="M276.47,161.723l4.7.189V174.02h-4.7Z"/>
        <path id="Tracé_292" data-name="Tracé 292" class="cls-4" d="M307.271,162.977V174.02h-4.7V162.785Z"/>
      </g>
      <rect id="Rectangle_66" data-name="Rectangle 66" class="cls-5" width="42.838" height="38.864" transform="translate(270.451 164.557)"/>
      <rect id="Rectangle_67" data-name="Rectangle 67" class="cls-6" width="21.419" height="38.864" transform="translate(291.87 164.557)"/>
      <path id="Tracé_293" data-name="Tracé 293" class="cls-7" d="M293.682,185.413l1.793,8.506h-7.61l1.793-8.506a3.805,3.805,0,1,1,4.024,0Z"/>
    </g>
  </g>
</svg>
